M48
; DRILL file {KiCad 8.0.1} date 2024-05-03T13:13:55+0200
; FORMAT={-:-/ absolute / inch / decimal}
; #@! TF.CreationDate,2024-05-03T13:13:55+02:00
; #@! TF.GenerationSoftware,Kicad,Pcbnew,8.0.1
; #@! TF.FileFunction,Plated,1,4,PTH
FMAT,2
INCH
; #@! TA.AperFunction,Plated,PTH,ViaDrill
T1C0.0100
; #@! TA.AperFunction,Plated,PTH,ComponentDrill
T2C0.0100
; #@! TA.AperFunction,Plated,PTH,ViaDrill
T3C0.0118
; #@! TA.AperFunction,Plated,PTH,ViaDrill
T4C0.0197
; #@! TA.AperFunction,Plated,PTH,ComponentDrill
T5C0.0394
; #@! TA.AperFunction,Plated,PTH,ComponentDrill
T6C0.1260
%
G90
G05
T1
X3.7316Y-2.6681
X3.7316Y-2.7031
X3.7316Y-2.7382
X3.8513Y-2.6681
X3.8513Y-2.7031
X3.8513Y-2.7382
X4.226Y-2.668
X4.226Y-2.703
X4.226Y-2.7381
X4.3457Y-2.668
X4.3457Y-2.703
X4.3457Y-2.7381
X4.7205Y-2.668
X4.7205Y-2.703
X4.7205Y-2.7381
X4.8402Y-2.668
X4.8402Y-2.703
X4.8402Y-2.7381
X5.2455Y-2.668
X5.2455Y-2.703
X5.2455Y-2.7381
X5.3652Y-2.668
X5.3652Y-2.703
X5.3652Y-2.7381
X5.7399Y-2.668
X5.7399Y-2.703
X5.7399Y-2.7381
X5.8596Y-2.668
X5.8596Y-2.703
X5.8596Y-2.7381
X6.2344Y-2.668
X6.2344Y-2.703
X6.2344Y-2.7381
X6.354Y-2.668
X6.354Y-2.703
X6.354Y-2.7381
T2
X3.7604Y-2.6856
X3.7604Y-2.7207
X3.7915Y-2.6681
X3.7915Y-2.7031
X3.7915Y-2.7382
X3.8202Y-2.6856
X3.8202Y-2.7207
X4.2571Y-2.6855
X4.2571Y-2.7206
X4.2859Y-2.668
X4.2859Y-2.703
X4.2859Y-2.7381
X4.3169Y-2.6855
X4.3169Y-2.7206
X4.7515Y-2.6855
X4.7515Y-2.7206
X4.7803Y-2.668
X4.7803Y-2.703
X4.7803Y-2.7381
X4.8113Y-2.6855
X4.8113Y-2.7206
X5.2765Y-2.6855
X5.2765Y-2.7206
X5.3053Y-2.668
X5.3053Y-2.703
X5.3053Y-2.7381
X5.3363Y-2.6855
X5.3363Y-2.7206
X5.7709Y-2.6855
X5.7709Y-2.7206
X5.7998Y-2.668
X5.7998Y-2.703
X5.7998Y-2.7381
X5.8308Y-2.6855
X5.8308Y-2.7206
X6.2654Y-2.6855
X6.2654Y-2.7206
X6.2942Y-2.668
X6.2942Y-2.703
X6.2942Y-2.7381
X6.3252Y-2.6855
X6.3252Y-2.7206
X6.7846Y-2.7649
X6.7846Y-2.8042
X6.824Y-2.7649
X6.824Y-2.8042
X6.8633Y-2.7649
X6.8633Y-2.8042
X7.2568Y-2.7649
X7.2568Y-2.8042
X7.2962Y-2.7649
X7.2962Y-2.8042
X7.3356Y-2.7649
X7.3356Y-2.8042
T3
X3.4809Y-2.2934
X3.4809Y-2.3934
X3.4809Y-2.4934
X3.4809Y-2.5934
X3.4809Y-2.6934
X3.4809Y-2.7934
X3.4809Y-2.8934
X3.4809Y-3.0572
X3.4809Y-3.5477
X3.4809Y-3.6477
X3.4813Y-2.9765
X3.5427Y-3.5477
X3.5462Y-3.0572
X3.5586Y-2.7954
X3.5667Y-2.5009
X3.5667Y-2.5568
X3.6147Y-3.547
X3.6171Y-3.0572
X3.6235Y-2.5568
X3.6305Y-2.7954
X3.6313Y-2.6253
X3.6868Y-3.3958
X3.6868Y-3.4666
X3.6868Y-3.5477
X3.6974Y-3.1292
X3.6982Y-3.0572
X3.6982Y-3.2013
X3.7501Y-2.5221
X3.7639Y-3.8792
X3.7665Y-2.804
X3.7714Y-2.0747
X3.8165Y-2.602
X3.8624Y-3.6887
X3.8624Y-3.7599
X3.8624Y-3.834
X3.8714Y-2.0747
X3.9435Y-3.6887
X3.9714Y-2.0747
X4.0009Y-2.8966
X4.0045Y-2.8072
X4.0088Y-2.7391
X4.0624Y-2.7966
X4.0714Y-2.0747
X4.0848Y-2.5013
X4.0848Y-2.5572
X4.1345Y-2.6342
X4.1345Y-2.7966
X4.1417Y-2.5572
X4.1714Y-2.0747
X4.186Y-2.9664
X4.1911Y-2.3631
X4.2609Y-2.5233
X4.2609Y-2.804
X4.2714Y-2.0747
X4.2777Y-3.6887
X4.3109Y-2.602
X4.3521Y-3.6887
X4.3525Y-3.7599
X4.3714Y-2.0747
X4.3828Y-3.8792
X4.4714Y-2.0747
X4.4828Y-3.8808
X4.4856Y-2.38
X4.4974Y-2.8068
X4.5001Y-2.7383
X4.5049Y-2.8966
X4.5454Y-2.3202
X4.5454Y-2.38
X4.56Y-2.7973
X4.5679Y-2.501
X4.5679Y-2.5556
X4.5714Y-2.0747
X4.5828Y-3.8808
X4.6053Y-2.3202
X4.6053Y-2.38
X4.6234Y-2.5556
X4.6313Y-2.6316
X4.6313Y-2.7985
X4.6568Y-2.891
X4.6651Y-2.3202
X4.6651Y-2.38
X4.6714Y-2.0747
X4.6828Y-3.8808
X4.725Y-2.3202
X4.725Y-2.38
X4.7478Y-2.53
X4.7553Y-2.804
X4.7659Y-2.0749
X4.7702Y-3.6021
X4.7828Y-3.8808
X4.7848Y-2.3202
X4.7848Y-2.38
X4.8053Y-2.602
X4.8446Y-2.3202
X4.8446Y-2.38
X4.8501Y-3.4044
X4.8501Y-3.4576
X4.8501Y-3.591
X4.8627Y-2.0757
X4.8828Y-3.8808
X4.9021Y-3.7159
X4.9037Y-3.4044
X4.9045Y-2.3202
X4.9045Y-2.38
X4.908Y-2.8556
X4.9194Y-2.4966
X4.9194Y-2.5564
X4.9194Y-2.6162
X4.9194Y-2.6761
X4.9301Y-3.9005
X4.9793Y-2.4966
X4.9793Y-2.5564
X4.9793Y-2.6162
X4.9793Y-2.6761
X4.986Y-2.7379
X4.996Y-2.8966
X5.0142Y-3.6041
X5.0218Y-3.4374
X5.0253Y-3.3863
X5.0391Y-2.4966
X5.0391Y-2.5564
X5.0391Y-2.6162
X5.0391Y-2.6761
X5.0391Y-2.7359
X5.0482Y-3.9005
X5.0805Y-2.7946
X5.099Y-2.4966
X5.099Y-2.5564
X5.099Y-2.6162
X5.099Y-2.6761
X5.099Y-2.7359
X5.1238Y-3.8808
X5.1523Y-2.63
X5.1523Y-2.7934
X5.1601Y-2.5568
X5.1797Y-3.7317
X5.2111Y-3.5639
X5.2301Y-2.3202
X5.2301Y-2.38
X5.2714Y-2.0747
X5.279Y-3.3511
X5.279Y-3.5635
X5.2803Y-2.804
X5.2806Y-2.5312
X5.2899Y-2.3202
X5.2899Y-2.38
X5.3303Y-2.602
X5.3498Y-2.3202
X5.3498Y-2.38
X5.3714Y-2.0747
X5.4096Y-2.3202
X5.4096Y-2.38
X5.4289Y-3.8808
X5.4694Y-2.3202
X5.4694Y-2.38
X5.4714Y-2.0747
X5.5074Y-2.804
X5.5117Y-2.7395
X5.5261Y-2.8966
X5.5293Y-2.3202
X5.5293Y-2.38
X5.5714Y-2.0747
X5.5769Y-2.7958
X5.5891Y-2.3202
X5.5891Y-2.38
X5.5999Y-2.5014
X5.5999Y-2.556
X5.6488Y-2.6316
X5.6488Y-2.7989
X5.649Y-2.38
X5.6554Y-2.556
X5.6714Y-2.0747
X5.719Y-3.8808
X5.7714Y-2.0747
X5.7739Y-2.521
X5.7748Y-2.804
X5.819Y-3.8808
X5.8248Y-2.602
X5.8714Y-2.0747
X5.919Y-3.8808
X5.9714Y-2.0747
X6.0035Y-2.808
X6.0062Y-2.7387
X6.019Y-3.8808
X6.0269Y-2.8966
X6.0684Y-2.7922
X6.0714Y-2.0747
X6.1015Y-2.501
X6.1015Y-2.5556
X6.119Y-3.8808
X6.1398Y-2.6316
X6.1398Y-2.7973
X6.157Y-2.5556
X6.1714Y-2.0747
X6.2031Y-2.3631
X6.2031Y-2.9662
X6.219Y-3.8808
X6.2692Y-2.804
X6.2696Y-2.5225
X6.2714Y-2.0747
X6.319Y-3.8808
X6.3192Y-2.602
X6.3714Y-2.0747
X6.419Y-3.8808
X6.4452Y-2.8509
X6.4714Y-2.0747
X6.4893Y-2.7383
X6.5149Y-2.8966
X6.519Y-3.8808
X6.5301Y-2.1391
X6.619Y-3.8808
X6.6982Y-2.6725
X6.6982Y-2.7725
X6.6982Y-2.8725
X6.7226Y-2.1391
X6.7261Y-2.4836
X6.7261Y-2.5529
X6.7864Y-2.4836
X6.8687Y-2.141
X6.8687Y-2.241
X6.8687Y-2.341
X6.9336Y-3.1084
X6.9336Y-3.158
X6.934Y-3.0489
X6.9813Y-2.8292
X6.9813Y-2.8891
X6.9911Y-3.0489
X6.9915Y-3.158
X7.0411Y-2.8292
X7.0411Y-2.8891
X7.1009Y-2.8292
X7.1009Y-2.8891
X7.1435Y-2.7151
X7.1531Y-2.6436
X7.1608Y-2.8292
X7.1608Y-2.8891
X7.2596Y-2.4836
X7.2856Y-2.0747
X7.3289Y-2.4836
X7.3289Y-2.5438
X7.3324Y-2.9284
X7.3342Y-2.6436
X7.362Y-3.0202
X7.3856Y-2.0747
X7.4198Y-3.9005
X7.4616Y-2.7832
X7.4616Y-2.8832
X7.4616Y-2.9832
X7.4856Y-2.0747
X7.5198Y-3.9005
X7.5856Y-2.0747
X7.6198Y-3.9005
X7.6856Y-2.0747
X7.6856Y-2.132
X7.7198Y-3.9005
X7.8198Y-3.9005
X7.8742Y-2.1284
X7.8949Y-2.8193
X7.9009Y-2.4859
X7.9742Y-2.4855
X8.0313Y-2.132
X8.0828Y-3.1056
X8.0828Y-3.1552
X8.0832Y-3.0462
X8.0899Y-2.8292
X8.0899Y-2.8891
X8.1084Y-2.7123
X8.1403Y-3.0462
X8.1407Y-3.1552
X8.1498Y-2.8292
X8.1498Y-2.8891
X8.2096Y-2.8292
X8.2096Y-2.8891
X8.2694Y-2.8292
X8.2694Y-2.8891
X8.3126Y-2.6436
X8.3163Y-2.7127
X8.3293Y-2.8292
X8.3293Y-2.8891
X8.4084Y-2.4859
X8.4541Y-2.0863
X8.4706Y-2.4859
X8.4706Y-2.5466
X8.4868Y-2.6397
X8.51Y-2.9328
X8.5541Y-2.0863
X8.5576Y-3.9162
X8.5616Y-2.7391
X8.5616Y-2.8044
X8.5624Y-2.871
X8.5624Y-2.9328
X8.6541Y-2.0863
X8.6576Y-3.9162
X8.7541Y-2.0863
X8.7576Y-3.9162
X9.0576Y-2.3414
X9.0576Y-2.4414
X9.0576Y-2.5414
X9.0576Y-2.6414
X9.0576Y-2.7414
X9.0576Y-2.8414
X9.0576Y-2.9414
X9.0576Y-3.0414
X9.0576Y-3.1414
X9.0576Y-3.2414
X9.0576Y-3.3414
X9.0576Y-3.4414
X9.0576Y-3.5414
X9.0576Y-3.6414
T4
X4.0064Y-2.9664
X4.0096Y-2.3635
X5.2112Y-3.4584
X5.3663Y-3.4584
X6.0212Y-2.3631
X6.0212Y-2.9666
X6.8897Y-2.9708
X6.9356Y-2.6962
X7.3598Y-2.9714
X7.421Y-2.7143
T5
X3.848Y-3.5314
X3.8537Y-3.2497
X4.4671Y-3.6781
X4.4915Y-3.4284
X4.7662Y-3.5061
X4.7663Y-2.1672
X4.7663Y-3.3001
X5.0039Y-3.108
X5.0039Y-3.256
X5.0173Y-2.2666
X5.0187Y-2.0292
X5.1039Y-3.108
X5.1039Y-3.256
X5.1173Y-2.2666
X5.1187Y-2.0292
X5.282Y-3.8281
X5.5763Y-3.8342
X6.6167Y-3.2509
X6.7702Y-2.3277
X6.974Y-2.1566
X7.0576Y-3.2509
X7.074Y-2.1566
X7.174Y-2.1566
X7.7751Y-2.3277
X8.1253Y-2.1574
X8.2081Y-3.2509
X8.2253Y-2.1574
X8.3253Y-2.1574
X8.6314Y-3.2479
T6
X3.5807Y-2.1339
X3.5807Y-3.8012
X8.9587Y-2.1339
X8.9587Y-3.8012
M30
