%TF.GenerationSoftware,KiCad,Pcbnew,8.0.1*%
%TF.CreationDate,2024-04-15T14:24:42+02:00*%
%TF.ProjectId,Transmitter prototype,5472616e-736d-4697-9474-65722070726f,rev?*%
%TF.SameCoordinates,Original*%
%TF.FileFunction,Legend,Top*%
%TF.FilePolarity,Positive*%
%FSLAX46Y46*%
G04 Gerber Fmt 4.6, Leading zero omitted, Abs format (unit mm)*
G04 Created by KiCad (PCBNEW 8.0.1) date 2024-04-15 14:24:42*
%MOMM*%
%LPD*%
G01*
G04 APERTURE LIST*
%ADD10C,0.150000*%
%ADD11C,0.120000*%
%ADD12C,0.152400*%
%ADD13C,0.000000*%
%ADD14C,0.508000*%
G04 APERTURE END LIST*
D10*
X175752238Y-76600211D02*
X175704619Y-76695449D01*
X175704619Y-76695449D02*
X175704619Y-76838306D01*
X175704619Y-76838306D02*
X175752238Y-76981163D01*
X175752238Y-76981163D02*
X175847476Y-77076401D01*
X175847476Y-77076401D02*
X175942714Y-77124020D01*
X175942714Y-77124020D02*
X176133190Y-77171639D01*
X176133190Y-77171639D02*
X176276047Y-77171639D01*
X176276047Y-77171639D02*
X176466523Y-77124020D01*
X176466523Y-77124020D02*
X176561761Y-77076401D01*
X176561761Y-77076401D02*
X176657000Y-76981163D01*
X176657000Y-76981163D02*
X176704619Y-76838306D01*
X176704619Y-76838306D02*
X176704619Y-76743068D01*
X176704619Y-76743068D02*
X176657000Y-76600211D01*
X176657000Y-76600211D02*
X176609380Y-76552592D01*
X176609380Y-76552592D02*
X176276047Y-76552592D01*
X176276047Y-76552592D02*
X176276047Y-76743068D01*
X176704619Y-76124020D02*
X175704619Y-76124020D01*
X175704619Y-76124020D02*
X176704619Y-75552592D01*
X176704619Y-75552592D02*
X175704619Y-75552592D01*
X176704619Y-75076401D02*
X175704619Y-75076401D01*
X175704619Y-75076401D02*
X175704619Y-74838306D01*
X175704619Y-74838306D02*
X175752238Y-74695449D01*
X175752238Y-74695449D02*
X175847476Y-74600211D01*
X175847476Y-74600211D02*
X175942714Y-74552592D01*
X175942714Y-74552592D02*
X176133190Y-74504973D01*
X176133190Y-74504973D02*
X176276047Y-74504973D01*
X176276047Y-74504973D02*
X176466523Y-74552592D01*
X176466523Y-74552592D02*
X176561761Y-74600211D01*
X176561761Y-74600211D02*
X176657000Y-74695449D01*
X176657000Y-74695449D02*
X176704619Y-74838306D01*
X176704619Y-74838306D02*
X176704619Y-75076401D01*
X171650066Y-76930020D02*
X171650066Y-76168116D01*
X172031019Y-76549068D02*
X171269114Y-76549068D01*
X171031019Y-75215735D02*
X171031019Y-75691925D01*
X171031019Y-75691925D02*
X171507209Y-75739544D01*
X171507209Y-75739544D02*
X171459590Y-75691925D01*
X171459590Y-75691925D02*
X171411971Y-75596687D01*
X171411971Y-75596687D02*
X171411971Y-75358592D01*
X171411971Y-75358592D02*
X171459590Y-75263354D01*
X171459590Y-75263354D02*
X171507209Y-75215735D01*
X171507209Y-75215735D02*
X171602447Y-75168116D01*
X171602447Y-75168116D02*
X171840542Y-75168116D01*
X171840542Y-75168116D02*
X171935780Y-75215735D01*
X171935780Y-75215735D02*
X171983400Y-75263354D01*
X171983400Y-75263354D02*
X172031019Y-75358592D01*
X172031019Y-75358592D02*
X172031019Y-75596687D01*
X172031019Y-75596687D02*
X171983400Y-75691925D01*
X171983400Y-75691925D02*
X171935780Y-75739544D01*
X171031019Y-74882401D02*
X172031019Y-74549068D01*
X172031019Y-74549068D02*
X171031019Y-74215735D01*
X174088466Y-77031620D02*
X174088466Y-76269716D01*
X173469419Y-75317335D02*
X173469419Y-75793525D01*
X173469419Y-75793525D02*
X173945609Y-75841144D01*
X173945609Y-75841144D02*
X173897990Y-75793525D01*
X173897990Y-75793525D02*
X173850371Y-75698287D01*
X173850371Y-75698287D02*
X173850371Y-75460192D01*
X173850371Y-75460192D02*
X173897990Y-75364954D01*
X173897990Y-75364954D02*
X173945609Y-75317335D01*
X173945609Y-75317335D02*
X174040847Y-75269716D01*
X174040847Y-75269716D02*
X174278942Y-75269716D01*
X174278942Y-75269716D02*
X174374180Y-75317335D01*
X174374180Y-75317335D02*
X174421800Y-75364954D01*
X174421800Y-75364954D02*
X174469419Y-75460192D01*
X174469419Y-75460192D02*
X174469419Y-75698287D01*
X174469419Y-75698287D02*
X174421800Y-75793525D01*
X174421800Y-75793525D02*
X174374180Y-75841144D01*
X173469419Y-74984001D02*
X174469419Y-74650668D01*
X174469419Y-74650668D02*
X173469419Y-74317335D01*
X174396495Y-101851619D02*
X174396495Y-100851619D01*
X174396495Y-101327809D02*
X174967923Y-101327809D01*
X174967923Y-101851619D02*
X174967923Y-100851619D01*
X175348876Y-100851619D02*
X175967923Y-100851619D01*
X175967923Y-100851619D02*
X175634590Y-101232571D01*
X175634590Y-101232571D02*
X175777447Y-101232571D01*
X175777447Y-101232571D02*
X175872685Y-101280190D01*
X175872685Y-101280190D02*
X175920304Y-101327809D01*
X175920304Y-101327809D02*
X175967923Y-101423047D01*
X175967923Y-101423047D02*
X175967923Y-101661142D01*
X175967923Y-101661142D02*
X175920304Y-101756380D01*
X175920304Y-101756380D02*
X175872685Y-101804000D01*
X175872685Y-101804000D02*
X175777447Y-101851619D01*
X175777447Y-101851619D02*
X175491733Y-101851619D01*
X175491733Y-101851619D02*
X175396495Y-101804000D01*
X175396495Y-101804000D02*
X175348876Y-101756380D01*
X174603580Y-97905866D02*
X174651200Y-97953485D01*
X174651200Y-97953485D02*
X174698819Y-98096342D01*
X174698819Y-98096342D02*
X174698819Y-98191580D01*
X174698819Y-98191580D02*
X174651200Y-98334437D01*
X174651200Y-98334437D02*
X174555961Y-98429675D01*
X174555961Y-98429675D02*
X174460723Y-98477294D01*
X174460723Y-98477294D02*
X174270247Y-98524913D01*
X174270247Y-98524913D02*
X174127390Y-98524913D01*
X174127390Y-98524913D02*
X173936914Y-98477294D01*
X173936914Y-98477294D02*
X173841676Y-98429675D01*
X173841676Y-98429675D02*
X173746438Y-98334437D01*
X173746438Y-98334437D02*
X173698819Y-98191580D01*
X173698819Y-98191580D02*
X173698819Y-98096342D01*
X173698819Y-98096342D02*
X173746438Y-97953485D01*
X173746438Y-97953485D02*
X173794057Y-97905866D01*
X173698819Y-97001104D02*
X173698819Y-97477294D01*
X173698819Y-97477294D02*
X174175009Y-97524913D01*
X174175009Y-97524913D02*
X174127390Y-97477294D01*
X174127390Y-97477294D02*
X174079771Y-97382056D01*
X174079771Y-97382056D02*
X174079771Y-97143961D01*
X174079771Y-97143961D02*
X174127390Y-97048723D01*
X174127390Y-97048723D02*
X174175009Y-97001104D01*
X174175009Y-97001104D02*
X174270247Y-96953485D01*
X174270247Y-96953485D02*
X174508342Y-96953485D01*
X174508342Y-96953485D02*
X174603580Y-97001104D01*
X174603580Y-97001104D02*
X174651200Y-97048723D01*
X174651200Y-97048723D02*
X174698819Y-97143961D01*
X174698819Y-97143961D02*
X174698819Y-97382056D01*
X174698819Y-97382056D02*
X174651200Y-97477294D01*
X174651200Y-97477294D02*
X174603580Y-97524913D01*
X168863180Y-96026266D02*
X168910800Y-96073885D01*
X168910800Y-96073885D02*
X168958419Y-96216742D01*
X168958419Y-96216742D02*
X168958419Y-96311980D01*
X168958419Y-96311980D02*
X168910800Y-96454837D01*
X168910800Y-96454837D02*
X168815561Y-96550075D01*
X168815561Y-96550075D02*
X168720323Y-96597694D01*
X168720323Y-96597694D02*
X168529847Y-96645313D01*
X168529847Y-96645313D02*
X168386990Y-96645313D01*
X168386990Y-96645313D02*
X168196514Y-96597694D01*
X168196514Y-96597694D02*
X168101276Y-96550075D01*
X168101276Y-96550075D02*
X168006038Y-96454837D01*
X168006038Y-96454837D02*
X167958419Y-96311980D01*
X167958419Y-96311980D02*
X167958419Y-96216742D01*
X167958419Y-96216742D02*
X168006038Y-96073885D01*
X168006038Y-96073885D02*
X168053657Y-96026266D01*
X167958419Y-95169123D02*
X167958419Y-95359599D01*
X167958419Y-95359599D02*
X168006038Y-95454837D01*
X168006038Y-95454837D02*
X168053657Y-95502456D01*
X168053657Y-95502456D02*
X168196514Y-95597694D01*
X168196514Y-95597694D02*
X168386990Y-95645313D01*
X168386990Y-95645313D02*
X168767942Y-95645313D01*
X168767942Y-95645313D02*
X168863180Y-95597694D01*
X168863180Y-95597694D02*
X168910800Y-95550075D01*
X168910800Y-95550075D02*
X168958419Y-95454837D01*
X168958419Y-95454837D02*
X168958419Y-95264361D01*
X168958419Y-95264361D02*
X168910800Y-95169123D01*
X168910800Y-95169123D02*
X168863180Y-95121504D01*
X168863180Y-95121504D02*
X168767942Y-95073885D01*
X168767942Y-95073885D02*
X168529847Y-95073885D01*
X168529847Y-95073885D02*
X168434609Y-95121504D01*
X168434609Y-95121504D02*
X168386990Y-95169123D01*
X168386990Y-95169123D02*
X168339371Y-95264361D01*
X168339371Y-95264361D02*
X168339371Y-95454837D01*
X168339371Y-95454837D02*
X168386990Y-95550075D01*
X168386990Y-95550075D02*
X168434609Y-95597694D01*
X168434609Y-95597694D02*
X168529847Y-95645313D01*
X161547980Y-86272666D02*
X161595600Y-86320285D01*
X161595600Y-86320285D02*
X161643219Y-86463142D01*
X161643219Y-86463142D02*
X161643219Y-86558380D01*
X161643219Y-86558380D02*
X161595600Y-86701237D01*
X161595600Y-86701237D02*
X161500361Y-86796475D01*
X161500361Y-86796475D02*
X161405123Y-86844094D01*
X161405123Y-86844094D02*
X161214647Y-86891713D01*
X161214647Y-86891713D02*
X161071790Y-86891713D01*
X161071790Y-86891713D02*
X160881314Y-86844094D01*
X160881314Y-86844094D02*
X160786076Y-86796475D01*
X160786076Y-86796475D02*
X160690838Y-86701237D01*
X160690838Y-86701237D02*
X160643219Y-86558380D01*
X160643219Y-86558380D02*
X160643219Y-86463142D01*
X160643219Y-86463142D02*
X160690838Y-86320285D01*
X160690838Y-86320285D02*
X160738457Y-86272666D01*
X161643219Y-85320285D02*
X161643219Y-85891713D01*
X161643219Y-85605999D02*
X160643219Y-85605999D01*
X160643219Y-85605999D02*
X160786076Y-85701237D01*
X160786076Y-85701237D02*
X160881314Y-85796475D01*
X160881314Y-85796475D02*
X160928933Y-85891713D01*
X178619619Y-79124133D02*
X179333904Y-79124133D01*
X179333904Y-79124133D02*
X179476761Y-79171752D01*
X179476761Y-79171752D02*
X179572000Y-79266990D01*
X179572000Y-79266990D02*
X179619619Y-79409847D01*
X179619619Y-79409847D02*
X179619619Y-79505085D01*
X178619619Y-78743180D02*
X178619619Y-78124133D01*
X178619619Y-78124133D02*
X179000571Y-78457466D01*
X179000571Y-78457466D02*
X179000571Y-78314609D01*
X179000571Y-78314609D02*
X179048190Y-78219371D01*
X179048190Y-78219371D02*
X179095809Y-78171752D01*
X179095809Y-78171752D02*
X179191047Y-78124133D01*
X179191047Y-78124133D02*
X179429142Y-78124133D01*
X179429142Y-78124133D02*
X179524380Y-78171752D01*
X179524380Y-78171752D02*
X179572000Y-78219371D01*
X179572000Y-78219371D02*
X179619619Y-78314609D01*
X179619619Y-78314609D02*
X179619619Y-78600323D01*
X179619619Y-78600323D02*
X179572000Y-78695561D01*
X179572000Y-78695561D02*
X179524380Y-78743180D01*
X176196666Y-89072819D02*
X176196666Y-89787104D01*
X176196666Y-89787104D02*
X176149047Y-89929961D01*
X176149047Y-89929961D02*
X176053809Y-90025200D01*
X176053809Y-90025200D02*
X175910952Y-90072819D01*
X175910952Y-90072819D02*
X175815714Y-90072819D01*
X177149047Y-89072819D02*
X176672857Y-89072819D01*
X176672857Y-89072819D02*
X176625238Y-89549009D01*
X176625238Y-89549009D02*
X176672857Y-89501390D01*
X176672857Y-89501390D02*
X176768095Y-89453771D01*
X176768095Y-89453771D02*
X177006190Y-89453771D01*
X177006190Y-89453771D02*
X177101428Y-89501390D01*
X177101428Y-89501390D02*
X177149047Y-89549009D01*
X177149047Y-89549009D02*
X177196666Y-89644247D01*
X177196666Y-89644247D02*
X177196666Y-89882342D01*
X177196666Y-89882342D02*
X177149047Y-89977580D01*
X177149047Y-89977580D02*
X177101428Y-90025200D01*
X177101428Y-90025200D02*
X177006190Y-90072819D01*
X177006190Y-90072819D02*
X176768095Y-90072819D01*
X176768095Y-90072819D02*
X176672857Y-90025200D01*
X176672857Y-90025200D02*
X176625238Y-89977580D01*
X171406019Y-101425333D02*
X172120304Y-101425333D01*
X172120304Y-101425333D02*
X172263161Y-101472952D01*
X172263161Y-101472952D02*
X172358400Y-101568190D01*
X172358400Y-101568190D02*
X172406019Y-101711047D01*
X172406019Y-101711047D02*
X172406019Y-101806285D01*
X171501257Y-100996761D02*
X171453638Y-100949142D01*
X171453638Y-100949142D02*
X171406019Y-100853904D01*
X171406019Y-100853904D02*
X171406019Y-100615809D01*
X171406019Y-100615809D02*
X171453638Y-100520571D01*
X171453638Y-100520571D02*
X171501257Y-100472952D01*
X171501257Y-100472952D02*
X171596495Y-100425333D01*
X171596495Y-100425333D02*
X171691733Y-100425333D01*
X171691733Y-100425333D02*
X171834590Y-100472952D01*
X171834590Y-100472952D02*
X172406019Y-101044380D01*
X172406019Y-101044380D02*
X172406019Y-100425333D01*
X168913980Y-98058266D02*
X168961600Y-98105885D01*
X168961600Y-98105885D02*
X169009219Y-98248742D01*
X169009219Y-98248742D02*
X169009219Y-98343980D01*
X169009219Y-98343980D02*
X168961600Y-98486837D01*
X168961600Y-98486837D02*
X168866361Y-98582075D01*
X168866361Y-98582075D02*
X168771123Y-98629694D01*
X168771123Y-98629694D02*
X168580647Y-98677313D01*
X168580647Y-98677313D02*
X168437790Y-98677313D01*
X168437790Y-98677313D02*
X168247314Y-98629694D01*
X168247314Y-98629694D02*
X168152076Y-98582075D01*
X168152076Y-98582075D02*
X168056838Y-98486837D01*
X168056838Y-98486837D02*
X168009219Y-98343980D01*
X168009219Y-98343980D02*
X168009219Y-98248742D01*
X168009219Y-98248742D02*
X168056838Y-98105885D01*
X168056838Y-98105885D02*
X168104457Y-98058266D01*
X168009219Y-97724932D02*
X168009219Y-97058266D01*
X168009219Y-97058266D02*
X169009219Y-97486837D01*
X167525795Y-91212319D02*
X167525795Y-92021842D01*
X167525795Y-92021842D02*
X167573414Y-92117080D01*
X167573414Y-92117080D02*
X167621033Y-92164700D01*
X167621033Y-92164700D02*
X167716271Y-92212319D01*
X167716271Y-92212319D02*
X167906747Y-92212319D01*
X167906747Y-92212319D02*
X168001985Y-92164700D01*
X168001985Y-92164700D02*
X168049604Y-92117080D01*
X168049604Y-92117080D02*
X168097223Y-92021842D01*
X168097223Y-92021842D02*
X168097223Y-91212319D01*
X169097223Y-92212319D02*
X168525795Y-92212319D01*
X168811509Y-92212319D02*
X168811509Y-91212319D01*
X168811509Y-91212319D02*
X168716271Y-91355176D01*
X168716271Y-91355176D02*
X168621033Y-91450414D01*
X168621033Y-91450414D02*
X168525795Y-91498033D01*
X161363066Y-82309619D02*
X161363066Y-83023904D01*
X161363066Y-83023904D02*
X161315447Y-83166761D01*
X161315447Y-83166761D02*
X161220209Y-83262000D01*
X161220209Y-83262000D02*
X161077352Y-83309619D01*
X161077352Y-83309619D02*
X160982114Y-83309619D01*
X162363066Y-83309619D02*
X161791638Y-83309619D01*
X162077352Y-83309619D02*
X162077352Y-82309619D01*
X162077352Y-82309619D02*
X161982114Y-82452476D01*
X161982114Y-82452476D02*
X161886876Y-82547714D01*
X161886876Y-82547714D02*
X161791638Y-82595333D01*
X174501980Y-95873866D02*
X174549600Y-95921485D01*
X174549600Y-95921485D02*
X174597219Y-96064342D01*
X174597219Y-96064342D02*
X174597219Y-96159580D01*
X174597219Y-96159580D02*
X174549600Y-96302437D01*
X174549600Y-96302437D02*
X174454361Y-96397675D01*
X174454361Y-96397675D02*
X174359123Y-96445294D01*
X174359123Y-96445294D02*
X174168647Y-96492913D01*
X174168647Y-96492913D02*
X174025790Y-96492913D01*
X174025790Y-96492913D02*
X173835314Y-96445294D01*
X173835314Y-96445294D02*
X173740076Y-96397675D01*
X173740076Y-96397675D02*
X173644838Y-96302437D01*
X173644838Y-96302437D02*
X173597219Y-96159580D01*
X173597219Y-96159580D02*
X173597219Y-96064342D01*
X173597219Y-96064342D02*
X173644838Y-95921485D01*
X173644838Y-95921485D02*
X173692457Y-95873866D01*
X173930552Y-95016723D02*
X174597219Y-95016723D01*
X173549600Y-95254818D02*
X174263885Y-95492913D01*
X174263885Y-95492913D02*
X174263885Y-94873866D01*
X170318133Y-83874780D02*
X170270514Y-83922400D01*
X170270514Y-83922400D02*
X170127657Y-83970019D01*
X170127657Y-83970019D02*
X170032419Y-83970019D01*
X170032419Y-83970019D02*
X169889562Y-83922400D01*
X169889562Y-83922400D02*
X169794324Y-83827161D01*
X169794324Y-83827161D02*
X169746705Y-83731923D01*
X169746705Y-83731923D02*
X169699086Y-83541447D01*
X169699086Y-83541447D02*
X169699086Y-83398590D01*
X169699086Y-83398590D02*
X169746705Y-83208114D01*
X169746705Y-83208114D02*
X169794324Y-83112876D01*
X169794324Y-83112876D02*
X169889562Y-83017638D01*
X169889562Y-83017638D02*
X170032419Y-82970019D01*
X170032419Y-82970019D02*
X170127657Y-82970019D01*
X170127657Y-82970019D02*
X170270514Y-83017638D01*
X170270514Y-83017638D02*
X170318133Y-83065257D01*
X170794324Y-83970019D02*
X170984800Y-83970019D01*
X170984800Y-83970019D02*
X171080038Y-83922400D01*
X171080038Y-83922400D02*
X171127657Y-83874780D01*
X171127657Y-83874780D02*
X171222895Y-83731923D01*
X171222895Y-83731923D02*
X171270514Y-83541447D01*
X171270514Y-83541447D02*
X171270514Y-83160495D01*
X171270514Y-83160495D02*
X171222895Y-83065257D01*
X171222895Y-83065257D02*
X171175276Y-83017638D01*
X171175276Y-83017638D02*
X171080038Y-82970019D01*
X171080038Y-82970019D02*
X170889562Y-82970019D01*
X170889562Y-82970019D02*
X170794324Y-83017638D01*
X170794324Y-83017638D02*
X170746705Y-83065257D01*
X170746705Y-83065257D02*
X170699086Y-83160495D01*
X170699086Y-83160495D02*
X170699086Y-83398590D01*
X170699086Y-83398590D02*
X170746705Y-83493828D01*
X170746705Y-83493828D02*
X170794324Y-83541447D01*
X170794324Y-83541447D02*
X170889562Y-83589066D01*
X170889562Y-83589066D02*
X171080038Y-83589066D01*
X171080038Y-83589066D02*
X171175276Y-83541447D01*
X171175276Y-83541447D02*
X171222895Y-83493828D01*
X171222895Y-83493828D02*
X171270514Y-83398590D01*
X167052666Y-81090419D02*
X167052666Y-81804704D01*
X167052666Y-81804704D02*
X167005047Y-81947561D01*
X167005047Y-81947561D02*
X166909809Y-82042800D01*
X166909809Y-82042800D02*
X166766952Y-82090419D01*
X166766952Y-82090419D02*
X166671714Y-82090419D01*
X167957428Y-81090419D02*
X167766952Y-81090419D01*
X167766952Y-81090419D02*
X167671714Y-81138038D01*
X167671714Y-81138038D02*
X167624095Y-81185657D01*
X167624095Y-81185657D02*
X167528857Y-81328514D01*
X167528857Y-81328514D02*
X167481238Y-81518990D01*
X167481238Y-81518990D02*
X167481238Y-81899942D01*
X167481238Y-81899942D02*
X167528857Y-81995180D01*
X167528857Y-81995180D02*
X167576476Y-82042800D01*
X167576476Y-82042800D02*
X167671714Y-82090419D01*
X167671714Y-82090419D02*
X167862190Y-82090419D01*
X167862190Y-82090419D02*
X167957428Y-82042800D01*
X167957428Y-82042800D02*
X168005047Y-81995180D01*
X168005047Y-81995180D02*
X168052666Y-81899942D01*
X168052666Y-81899942D02*
X168052666Y-81661847D01*
X168052666Y-81661847D02*
X168005047Y-81566609D01*
X168005047Y-81566609D02*
X167957428Y-81518990D01*
X167957428Y-81518990D02*
X167862190Y-81471371D01*
X167862190Y-81471371D02*
X167671714Y-81471371D01*
X167671714Y-81471371D02*
X167576476Y-81518990D01*
X167576476Y-81518990D02*
X167528857Y-81566609D01*
X167528857Y-81566609D02*
X167481238Y-81661847D01*
X175601333Y-81995180D02*
X175553714Y-82042800D01*
X175553714Y-82042800D02*
X175410857Y-82090419D01*
X175410857Y-82090419D02*
X175315619Y-82090419D01*
X175315619Y-82090419D02*
X175172762Y-82042800D01*
X175172762Y-82042800D02*
X175077524Y-81947561D01*
X175077524Y-81947561D02*
X175029905Y-81852323D01*
X175029905Y-81852323D02*
X174982286Y-81661847D01*
X174982286Y-81661847D02*
X174982286Y-81518990D01*
X174982286Y-81518990D02*
X175029905Y-81328514D01*
X175029905Y-81328514D02*
X175077524Y-81233276D01*
X175077524Y-81233276D02*
X175172762Y-81138038D01*
X175172762Y-81138038D02*
X175315619Y-81090419D01*
X175315619Y-81090419D02*
X175410857Y-81090419D01*
X175410857Y-81090419D02*
X175553714Y-81138038D01*
X175553714Y-81138038D02*
X175601333Y-81185657D01*
X175934667Y-81090419D02*
X176553714Y-81090419D01*
X176553714Y-81090419D02*
X176220381Y-81471371D01*
X176220381Y-81471371D02*
X176363238Y-81471371D01*
X176363238Y-81471371D02*
X176458476Y-81518990D01*
X176458476Y-81518990D02*
X176506095Y-81566609D01*
X176506095Y-81566609D02*
X176553714Y-81661847D01*
X176553714Y-81661847D02*
X176553714Y-81899942D01*
X176553714Y-81899942D02*
X176506095Y-81995180D01*
X176506095Y-81995180D02*
X176458476Y-82042800D01*
X176458476Y-82042800D02*
X176363238Y-82090419D01*
X176363238Y-82090419D02*
X176077524Y-82090419D01*
X176077524Y-82090419D02*
X175982286Y-82042800D01*
X175982286Y-82042800D02*
X175934667Y-81995180D01*
X175652133Y-83722380D02*
X175604514Y-83770000D01*
X175604514Y-83770000D02*
X175461657Y-83817619D01*
X175461657Y-83817619D02*
X175366419Y-83817619D01*
X175366419Y-83817619D02*
X175223562Y-83770000D01*
X175223562Y-83770000D02*
X175128324Y-83674761D01*
X175128324Y-83674761D02*
X175080705Y-83579523D01*
X175080705Y-83579523D02*
X175033086Y-83389047D01*
X175033086Y-83389047D02*
X175033086Y-83246190D01*
X175033086Y-83246190D02*
X175080705Y-83055714D01*
X175080705Y-83055714D02*
X175128324Y-82960476D01*
X175128324Y-82960476D02*
X175223562Y-82865238D01*
X175223562Y-82865238D02*
X175366419Y-82817619D01*
X175366419Y-82817619D02*
X175461657Y-82817619D01*
X175461657Y-82817619D02*
X175604514Y-82865238D01*
X175604514Y-82865238D02*
X175652133Y-82912857D01*
X176223562Y-83246190D02*
X176128324Y-83198571D01*
X176128324Y-83198571D02*
X176080705Y-83150952D01*
X176080705Y-83150952D02*
X176033086Y-83055714D01*
X176033086Y-83055714D02*
X176033086Y-83008095D01*
X176033086Y-83008095D02*
X176080705Y-82912857D01*
X176080705Y-82912857D02*
X176128324Y-82865238D01*
X176128324Y-82865238D02*
X176223562Y-82817619D01*
X176223562Y-82817619D02*
X176414038Y-82817619D01*
X176414038Y-82817619D02*
X176509276Y-82865238D01*
X176509276Y-82865238D02*
X176556895Y-82912857D01*
X176556895Y-82912857D02*
X176604514Y-83008095D01*
X176604514Y-83008095D02*
X176604514Y-83055714D01*
X176604514Y-83055714D02*
X176556895Y-83150952D01*
X176556895Y-83150952D02*
X176509276Y-83198571D01*
X176509276Y-83198571D02*
X176414038Y-83246190D01*
X176414038Y-83246190D02*
X176223562Y-83246190D01*
X176223562Y-83246190D02*
X176128324Y-83293809D01*
X176128324Y-83293809D02*
X176080705Y-83341428D01*
X176080705Y-83341428D02*
X176033086Y-83436666D01*
X176033086Y-83436666D02*
X176033086Y-83627142D01*
X176033086Y-83627142D02*
X176080705Y-83722380D01*
X176080705Y-83722380D02*
X176128324Y-83770000D01*
X176128324Y-83770000D02*
X176223562Y-83817619D01*
X176223562Y-83817619D02*
X176414038Y-83817619D01*
X176414038Y-83817619D02*
X176509276Y-83770000D01*
X176509276Y-83770000D02*
X176556895Y-83722380D01*
X176556895Y-83722380D02*
X176604514Y-83627142D01*
X176604514Y-83627142D02*
X176604514Y-83436666D01*
X176604514Y-83436666D02*
X176556895Y-83341428D01*
X176556895Y-83341428D02*
X176509276Y-83293809D01*
X176509276Y-83293809D02*
X176414038Y-83246190D01*
X162053733Y-92376419D02*
X161720400Y-91900228D01*
X161482305Y-92376419D02*
X161482305Y-91376419D01*
X161482305Y-91376419D02*
X161863257Y-91376419D01*
X161863257Y-91376419D02*
X161958495Y-91424038D01*
X161958495Y-91424038D02*
X162006114Y-91471657D01*
X162006114Y-91471657D02*
X162053733Y-91566895D01*
X162053733Y-91566895D02*
X162053733Y-91709752D01*
X162053733Y-91709752D02*
X162006114Y-91804990D01*
X162006114Y-91804990D02*
X161958495Y-91852609D01*
X161958495Y-91852609D02*
X161863257Y-91900228D01*
X161863257Y-91900228D02*
X161482305Y-91900228D01*
X163006114Y-92376419D02*
X162434686Y-92376419D01*
X162720400Y-92376419D02*
X162720400Y-91376419D01*
X162720400Y-91376419D02*
X162625162Y-91519276D01*
X162625162Y-91519276D02*
X162529924Y-91614514D01*
X162529924Y-91614514D02*
X162434686Y-91662133D01*
X179955866Y-88964419D02*
X179955866Y-89678704D01*
X179955866Y-89678704D02*
X179908247Y-89821561D01*
X179908247Y-89821561D02*
X179813009Y-89916800D01*
X179813009Y-89916800D02*
X179670152Y-89964419D01*
X179670152Y-89964419D02*
X179574914Y-89964419D01*
X180860628Y-89297752D02*
X180860628Y-89964419D01*
X180622533Y-88916800D02*
X180384438Y-89631085D01*
X180384438Y-89631085D02*
X181003485Y-89631085D01*
X157683295Y-96314419D02*
X157683295Y-95314419D01*
X157683295Y-95790609D02*
X158254723Y-95790609D01*
X158254723Y-96314419D02*
X158254723Y-95314419D01*
X158683295Y-95409657D02*
X158730914Y-95362038D01*
X158730914Y-95362038D02*
X158826152Y-95314419D01*
X158826152Y-95314419D02*
X159064247Y-95314419D01*
X159064247Y-95314419D02*
X159159485Y-95362038D01*
X159159485Y-95362038D02*
X159207104Y-95409657D01*
X159207104Y-95409657D02*
X159254723Y-95504895D01*
X159254723Y-95504895D02*
X159254723Y-95600133D01*
X159254723Y-95600133D02*
X159207104Y-95742990D01*
X159207104Y-95742990D02*
X158635676Y-96314419D01*
X158635676Y-96314419D02*
X159254723Y-96314419D01*
X175209295Y-71981219D02*
X175209295Y-70981219D01*
X175209295Y-71457409D02*
X175780723Y-71457409D01*
X175780723Y-71981219D02*
X175780723Y-70981219D01*
X176780723Y-71981219D02*
X176209295Y-71981219D01*
X176495009Y-71981219D02*
X176495009Y-70981219D01*
X176495009Y-70981219D02*
X176399771Y-71124076D01*
X176399771Y-71124076D02*
X176304533Y-71219314D01*
X176304533Y-71219314D02*
X176209295Y-71266933D01*
X170114933Y-82452380D02*
X170067314Y-82500000D01*
X170067314Y-82500000D02*
X169924457Y-82547619D01*
X169924457Y-82547619D02*
X169829219Y-82547619D01*
X169829219Y-82547619D02*
X169686362Y-82500000D01*
X169686362Y-82500000D02*
X169591124Y-82404761D01*
X169591124Y-82404761D02*
X169543505Y-82309523D01*
X169543505Y-82309523D02*
X169495886Y-82119047D01*
X169495886Y-82119047D02*
X169495886Y-81976190D01*
X169495886Y-81976190D02*
X169543505Y-81785714D01*
X169543505Y-81785714D02*
X169591124Y-81690476D01*
X169591124Y-81690476D02*
X169686362Y-81595238D01*
X169686362Y-81595238D02*
X169829219Y-81547619D01*
X169829219Y-81547619D02*
X169924457Y-81547619D01*
X169924457Y-81547619D02*
X170067314Y-81595238D01*
X170067314Y-81595238D02*
X170114933Y-81642857D01*
X170495886Y-81642857D02*
X170543505Y-81595238D01*
X170543505Y-81595238D02*
X170638743Y-81547619D01*
X170638743Y-81547619D02*
X170876838Y-81547619D01*
X170876838Y-81547619D02*
X170972076Y-81595238D01*
X170972076Y-81595238D02*
X171019695Y-81642857D01*
X171019695Y-81642857D02*
X171067314Y-81738095D01*
X171067314Y-81738095D02*
X171067314Y-81833333D01*
X171067314Y-81833333D02*
X171019695Y-81976190D01*
X171019695Y-81976190D02*
X170448267Y-82547619D01*
X170448267Y-82547619D02*
X171067314Y-82547619D01*
D11*
%TO.C,C5*%
X171290348Y-97055000D02*
X171812852Y-97055000D01*
X171290348Y-98525000D02*
X171812852Y-98525000D01*
%TO.C,C6*%
X165528448Y-95073800D02*
X166050952Y-95073800D01*
X165528448Y-96543800D02*
X166050952Y-96543800D01*
%TO.C,C1*%
X162460000Y-85866248D02*
X162460000Y-86388752D01*
X163930000Y-85866248D02*
X163930000Y-86388752D01*
%TO.C,J3*%
X170424800Y-77460800D02*
X170424800Y-80120800D01*
X175564800Y-77460800D02*
X170424800Y-77460800D01*
X175564800Y-77460800D02*
X175564800Y-80120800D01*
X175564800Y-80120800D02*
X170424800Y-80120800D01*
X176834800Y-77460800D02*
X178164800Y-77460800D01*
X178164800Y-77460800D02*
X178164800Y-78790800D01*
%TO.C,J5*%
X175200000Y-90618000D02*
X176530000Y-90618000D01*
X175200000Y-91948000D02*
X175200000Y-90618000D01*
X175200000Y-93218000D02*
X175200000Y-95818000D01*
X175200000Y-93218000D02*
X177860000Y-93218000D01*
X175200000Y-95818000D02*
X177860000Y-95818000D01*
X177860000Y-93218000D02*
X177860000Y-95818000D01*
%TO.C,J2*%
X165751200Y-99762000D02*
X165751200Y-102422000D01*
X168351200Y-99762000D02*
X165751200Y-99762000D01*
X168351200Y-99762000D02*
X168351200Y-102422000D01*
X168351200Y-102422000D02*
X165751200Y-102422000D01*
X169621200Y-99762000D02*
X170951200Y-99762000D01*
X170951200Y-99762000D02*
X170951200Y-101092000D01*
%TO.C,C7*%
X166152552Y-97309000D02*
X165630048Y-97309000D01*
X166152552Y-98779000D02*
X165630048Y-98779000D01*
D12*
%TO.C,U1*%
X166535203Y-94386400D02*
X170040197Y-94386400D01*
X170040197Y-89128600D02*
X166535203Y-89128600D01*
D13*
G36*
X172244499Y-93535500D02*
G01*
X171990499Y-93535500D01*
X171990499Y-93154500D01*
X172244499Y-93154500D01*
X172244499Y-93535500D01*
G37*
D12*
%TO.C,J1*%
X157543500Y-76174600D02*
X157543500Y-76428600D01*
X163042600Y-81927700D02*
X163296600Y-81927700D01*
X163296600Y-70675500D02*
X163042600Y-70675500D01*
X168795700Y-76428600D02*
X168795700Y-76174600D01*
X157543500Y-76174604D02*
G75*
G02*
X158698330Y-72803040I5499087J8D01*
G01*
X158698332Y-79800163D02*
G75*
G02*
X157543500Y-76428600I4344273J3371565D01*
G01*
X159671037Y-71830332D02*
G75*
G02*
X163042600Y-70675500I3371565J-4344273D01*
G01*
X163042604Y-81927700D02*
G75*
G02*
X159671040Y-80772870I-8J5499087D01*
G01*
X163296600Y-70675500D02*
G75*
G02*
X166668163Y-71830332I0J-5499100D01*
G01*
X166668163Y-80772868D02*
G75*
G02*
X163296600Y-81927700I-3371563J4344268D01*
G01*
X167640868Y-72803037D02*
G75*
G02*
X168795700Y-76174600I-4344268J-3371563D01*
G01*
X168795700Y-76428600D02*
G75*
G02*
X167640871Y-79800159I-5499100J0D01*
G01*
D14*
X169811700Y-76301600D02*
G75*
G02*
X169049700Y-76301600I-381000J0D01*
G01*
X169049700Y-76301600D02*
G75*
G02*
X169811700Y-76301600I381000J0D01*
G01*
D11*
%TO.C,C4*%
X171834352Y-94819800D02*
X171311848Y-94819800D01*
X171834352Y-96289800D02*
X171311848Y-96289800D01*
%TO.C,C9*%
X170375948Y-86590200D02*
X170898452Y-86590200D01*
X170375948Y-88060200D02*
X170898452Y-88060200D01*
%TO.C,J6*%
X165141600Y-85445600D02*
X165141600Y-82845600D01*
X167801600Y-82845600D02*
X165141600Y-82845600D01*
X167801600Y-85445600D02*
X165141600Y-85445600D01*
X167801600Y-85445600D02*
X167801600Y-82845600D01*
X167801600Y-86715600D02*
X167801600Y-88045600D01*
X167801600Y-88045600D02*
X166471600Y-88045600D01*
%TO.C,C3*%
X175826052Y-84405800D02*
X175303548Y-84405800D01*
X175826052Y-85875800D02*
X175303548Y-85875800D01*
%TO.C,C8*%
X175804552Y-86742600D02*
X175282048Y-86742600D01*
X175804552Y-88212600D02*
X175282048Y-88212600D01*
%TO.C,R1*%
X162447464Y-89536600D02*
X161993336Y-89536600D01*
X162447464Y-91006600D02*
X161993336Y-91006600D01*
%TO.C,J4*%
X178959200Y-93218000D02*
X178959200Y-95818000D01*
X178959200Y-93218000D02*
X181619200Y-93218000D01*
X178959200Y-95818000D02*
X181619200Y-95818000D01*
X180289200Y-90618000D02*
X181619200Y-90618000D01*
X181619200Y-90618000D02*
X181619200Y-91948000D01*
X181619200Y-93218000D02*
X181619200Y-95818000D01*
%TO.C,C2*%
X170375948Y-84456600D02*
X170898452Y-84456600D01*
X170375948Y-85926600D02*
X170898452Y-85926600D01*
%TD*%
M02*
