%TF.GenerationSoftware,KiCad,Pcbnew,8.0.1*%
%TF.CreationDate,2024-04-15T14:24:42+02:00*%
%TF.ProjectId,Transmitter prototype,5472616e-736d-4697-9474-65722070726f,rev?*%
%TF.SameCoordinates,Original*%
%TF.FileFunction,Soldermask,Top*%
%TF.FilePolarity,Negative*%
%FSLAX46Y46*%
G04 Gerber Fmt 4.6, Leading zero omitted, Abs format (unit mm)*
G04 Created by KiCad (PCBNEW 8.0.1) date 2024-04-15 14:24:42*
%MOMM*%
%LPD*%
G01*
G04 APERTURE LIST*
G04 Aperture macros list*
%AMRoundRect*
0 Rectangle with rounded corners*
0 $1 Rounding radius*
0 $2 $3 $4 $5 $6 $7 $8 $9 X,Y pos of 4 corners*
0 Add a 4 corners polygon primitive as box body*
4,1,4,$2,$3,$4,$5,$6,$7,$8,$9,$2,$3,0*
0 Add four circle primitives for the rounded corners*
1,1,$1+$1,$2,$3*
1,1,$1+$1,$4,$5*
1,1,$1+$1,$6,$7*
1,1,$1+$1,$8,$9*
0 Add four rect primitives between the rounded corners*
20,1,$1+$1,$2,$3,$4,$5,0*
20,1,$1+$1,$4,$5,$6,$7,0*
20,1,$1+$1,$6,$7,$8,$9,0*
20,1,$1+$1,$8,$9,$2,$3,0*%
G04 Aperture macros list end*
%ADD10C,5.000000*%
%ADD11RoundRect,0.250000X-0.337500X-0.475000X0.337500X-0.475000X0.337500X0.475000X-0.337500X0.475000X0*%
%ADD12RoundRect,0.250000X-0.475000X0.337500X-0.475000X-0.337500X0.475000X-0.337500X0.475000X0.337500X0*%
%ADD13R,1.700000X1.700000*%
%ADD14O,1.700000X1.700000*%
%ADD15RoundRect,0.250000X0.337500X0.475000X-0.337500X0.475000X-0.337500X-0.475000X0.337500X-0.475000X0*%
%ADD16R,1.454899X0.354800*%
%ADD17C,1.803400*%
%ADD18C,2.006600*%
%ADD19RoundRect,0.250000X0.350000X0.450000X-0.350000X0.450000X-0.350000X-0.450000X0.350000X-0.450000X0*%
G04 APERTURE END LIST*
D10*
%TO.C,H3*%
X179019200Y-99568000D03*
%TD*%
D11*
%TO.C,C5*%
X170514100Y-97790000D03*
X172589100Y-97790000D03*
%TD*%
%TO.C,C6*%
X164752200Y-95808800D03*
X166827200Y-95808800D03*
%TD*%
D12*
%TO.C,C1*%
X163195000Y-85090000D03*
X163195000Y-87165000D03*
%TD*%
D13*
%TO.C,J3*%
X176834800Y-78790800D03*
D14*
X174294800Y-78790800D03*
X171754800Y-78790800D03*
%TD*%
D13*
%TO.C,J5*%
X176530000Y-91948000D03*
D14*
X176530000Y-94488000D03*
%TD*%
D13*
%TO.C,J2*%
X169621200Y-101092000D03*
D14*
X167081200Y-101092000D03*
%TD*%
D15*
%TO.C,C7*%
X166928800Y-98044000D03*
X164853800Y-98044000D03*
%TD*%
D16*
%TO.C,U1*%
X165566352Y-89535000D03*
X165566352Y-90170000D03*
X165566352Y-90805000D03*
X165566352Y-91440000D03*
X165566352Y-92075000D03*
X165566352Y-92710000D03*
X165566352Y-93345000D03*
X165566352Y-93980000D03*
X171009048Y-93980000D03*
X171009048Y-93345000D03*
X171009048Y-92710000D03*
X171009048Y-92075000D03*
X171009048Y-91440000D03*
X171009048Y-90805000D03*
X171009048Y-90170000D03*
X171009048Y-89535000D03*
%TD*%
D17*
%TO.C,J1*%
X163169600Y-76301600D03*
D18*
X159994600Y-73126600D03*
X166344600Y-73126600D03*
X159994600Y-79476600D03*
X166344600Y-79476600D03*
%TD*%
D15*
%TO.C,C4*%
X172610600Y-95554800D03*
X170535600Y-95554800D03*
%TD*%
D11*
%TO.C,C9*%
X169599700Y-87325200D03*
X171674700Y-87325200D03*
%TD*%
D13*
%TO.C,J6*%
X166471600Y-86715600D03*
D14*
X166471600Y-84175600D03*
%TD*%
D15*
%TO.C,C3*%
X176602300Y-85140800D03*
X174527300Y-85140800D03*
%TD*%
%TO.C,C8*%
X176580800Y-87477600D03*
X174505800Y-87477600D03*
%TD*%
D19*
%TO.C,R1*%
X163220400Y-90271600D03*
X161220400Y-90271600D03*
%TD*%
D13*
%TO.C,J4*%
X180289200Y-91948000D03*
D14*
X180289200Y-94488000D03*
%TD*%
D10*
%TO.C,H2*%
X159969200Y-99263200D03*
%TD*%
%TO.C,H1*%
X179679600Y-73609200D03*
%TD*%
D11*
%TO.C,C2*%
X169599700Y-85191600D03*
X171674700Y-85191600D03*
%TD*%
M02*
