M48
; DRILL file {KiCad 8.0.2-8.0.2-0~ubuntu20.04.1} date 2024-05-06T11:04:01+0200
; FORMAT={-:-/ absolute / metric / decimal}
; #@! TF.CreationDate,2024-05-06T11:04:01+02:00
; #@! TF.GenerationSoftware,Kicad,Pcbnew,8.0.2-8.0.2-0~ubuntu20.04.1
; #@! TF.FileFunction,Plated,1,4,PTH
FMAT,2
METRIC
; #@! TA.AperFunction,Plated,PTH,ComponentDrill
T1C0.254
; #@! TA.AperFunction,Plated,PTH,ViaDrill
T2C0.300
; #@! TA.AperFunction,Plated,PTH,ViaDrill
T3C0.500
; #@! TA.AperFunction,Plated,PTH,ComponentDrill
T4C0.800
; #@! TA.AperFunction,Plated,PTH,ComponentDrill
T5C1.000
; #@! TA.AperFunction,Plated,PTH,ComponentDrill
T6C3.200
%
G90
G05
T1
X215.834Y-81.662
X215.834Y-82.662
X215.834Y-83.662
X216.834Y-81.662
X216.834Y-82.662
X216.834Y-83.662
T2
X88.05Y-72.625
X88.05Y-75.165
X88.05Y-77.705
X88.05Y-80.245
X88.05Y-82.785
X88.05Y-85.325
X88.05Y-87.865
X88.05Y-90.405
X89.38Y-58.77
X89.38Y-62.935
X89.38Y-67.185
X89.38Y-71.25
X92.925Y-60.855
X92.925Y-69.3
X94.871Y-99.11
X95.68Y-52.83
X96.75Y-67.47
X96.75Y-71.72
X96.82Y-57.725
X96.82Y-60.855
X97.214Y-99.11
X98.2Y-56.315
X98.2Y-62.325
X98.22Y-52.83
X98.25Y-59.297
X98.48Y-69.595
X98.48Y-73.525
X99.557Y-99.11
X100.76Y-52.83
X101.9Y-99.11
X102.25Y-75.4
X102.25Y-79.38
X103.3Y-52.83
X103.325Y-86.775
X104.05Y-73.525
X104.05Y-77.39
X104.05Y-81.0
X104.243Y-99.11
X105.0Y-56.175
X105.05Y-62.425
X105.84Y-52.83
X106.586Y-99.11
X106.95Y-88.13
X107.4Y-98.19
X108.38Y-52.83
X108.812Y-65.06
X109.75Y-94.56
X110.92Y-52.83
X111.9Y-98.19
X113.46Y-52.83
X113.6Y-61.92
X113.6Y-64.625
X113.6Y-67.225
X115.25Y-63.275
X115.25Y-65.975
X116.0Y-52.83
X116.19Y-98.19
X116.6Y-58.77
X116.775Y-83.6
X116.775Y-86.412
X117.0Y-63.275
X118.105Y-57.375
X118.18Y-84.99
X118.22Y-94.56
X118.25Y-60.335
X118.256Y-62.588
X118.275Y-63.525
X118.275Y-66.65
X118.54Y-52.83
X119.5Y-86.0
X120.125Y-68.1
X120.22Y-89.7
X120.22Y-92.29
X121.08Y-52.83
X121.19Y-58.77
X121.21Y-98.19
X121.51Y-93.61
X122.39Y-60.86
X123.13Y-93.61
X123.156Y-67.675
X124.29Y-94.56
X124.375Y-76.7
X124.375Y-78.79
X124.425Y-80.25
X124.425Y-83.25
X124.55Y-66.475
X125.25Y-88.0
X125.28Y-90.15
X125.94Y-81.8
X126.29Y-98.19
X126.5Y-86.75
X127.75Y-81.75
X128.49Y-88.25
X129.1Y-83.275
X129.125Y-85.125
X130.58Y-98.19
X132.74Y-94.56
X134.75Y-93.75
X134.98Y-98.19
X135.78Y-52.83
X136.63Y-73.23
X136.63Y-75.92
X136.63Y-78.79
X136.63Y-81.55
X136.63Y-84.39
X136.893Y-99.11
X138.17Y-71.6
X138.32Y-52.83
X139.236Y-99.11
X139.74Y-80.22
X139.95Y-85.73
X140.86Y-52.83
X141.52Y-85.73
X141.579Y-99.11
X141.67Y-82.18
X141.73Y-87.55
X142.95Y-82.18
X143.4Y-52.83
X143.922Y-99.11
X145.94Y-52.83
X146.23Y-91.87
X146.265Y-99.11
X148.45Y-85.61
X148.48Y-52.83
X148.608Y-99.11
X148.8Y-91.87
X149.75Y-83.5
X150.14Y-80.8
X150.19Y-79.07
X150.5Y-85.05
X150.62Y-88.75
X150.951Y-99.11
X151.02Y-52.83
X151.37Y-91.87
X152.84Y-90.51
X153.294Y-99.11
X153.56Y-52.83
X154.29Y-82.72
X154.35Y-83.94
X155.637Y-99.11
X156.1Y-52.83
X157.0Y-82.5
X157.98Y-99.11
X158.05Y-74.25
X158.09Y-79.85
X158.09Y-90.61
X158.1Y-77.05
X158.11Y-87.92
X158.64Y-52.83
X158.75Y-96.96
X159.44Y-83.87
X159.51Y-75.74
X159.51Y-78.445
X159.51Y-81.15
X159.52Y-89.24
X160.63Y-70.67
X161.0Y-94.29
X161.18Y-52.83
X162.03Y-90.46
X163.06Y-96.96
X163.06Y-99.11
X163.72Y-52.83
X166.26Y-52.83
X166.675Y-74.45
X166.675Y-76.625
X166.675Y-78.95
X167.0Y-82.0
X167.31Y-96.96
X167.31Y-99.11
X168.8Y-52.83
X169.47Y-94.29
X169.6Y-71.0
X170.0Y-77.807
X170.285Y-75.057
X170.65Y-81.92
X171.12Y-71.39
X171.34Y-52.83
X171.65Y-99.11
X171.725Y-74.45
X172.49Y-96.96
X173.11Y-52.81
X173.22Y-99.11
X173.613Y-81.92
X175.07Y-71.11
X175.3Y-90.42
X175.54Y-94.29
X175.65Y-52.81
X176.425Y-73.675
X176.577Y-81.92
X177.25Y-74.48
X177.63Y-96.96
X177.63Y-99.11
X178.13Y-71.11
X178.19Y-52.81
X179.31Y-75.81
X179.54Y-81.92
X180.73Y-52.81
X181.5Y-74.75
X181.5Y-77.0
X181.84Y-96.96
X181.84Y-99.11
X183.27Y-52.81
X183.81Y-79.19
X183.81Y-74.875
X183.99Y-94.29
X185.13Y-75.78
X185.13Y-78.057
X185.81Y-52.81
X186.543Y-96.95
X186.543Y-99.11
X188.064Y-96.95
X188.064Y-99.11
X188.35Y-52.81
X190.475Y-94.29
X190.89Y-52.81
X192.2Y-80.735
X192.2Y-82.505
X192.2Y-84.275
X193.3Y-96.95
X193.3Y-99.11
X193.43Y-52.81
X193.967Y-85.475
X195.97Y-52.81
X197.45Y-96.95
X197.45Y-99.11
X197.925Y-89.55
X197.925Y-92.325
X198.51Y-52.81
X199.325Y-91.01
X200.125Y-77.75
X200.125Y-80.575
X200.125Y-82.07
X200.325Y-94.29
X201.05Y-52.81
X201.675Y-79.1
X202.55Y-96.95
X202.55Y-99.11
X202.6Y-82.07
X202.6Y-84.76
X202.6Y-87.21
X203.59Y-52.81
X203.975Y-83.53
X203.975Y-85.86
X206.13Y-52.81
X207.575Y-96.95
X207.575Y-99.11
X208.67Y-52.81
X209.75Y-94.29
X211.21Y-52.81
X212.5Y-79.547
X212.5Y-96.95
X212.5Y-99.11
X213.75Y-52.81
X215.04Y-79.547
X215.39Y-85.747
X216.29Y-52.81
X216.75Y-96.95
X216.75Y-99.11
X216.77Y-85.747
X218.83Y-52.81
X219.625Y-94.29
X220.275Y-77.775
X220.275Y-80.35
X220.275Y-89.397
X220.275Y-92.372
X220.98Y-82.07
X221.37Y-52.81
X221.725Y-79.1
X221.81Y-90.872
X222.732Y-82.07
X222.732Y-84.76
X222.732Y-87.21
X224.21Y-92.8
X224.21Y-99.11
X224.24Y-83.53
X224.24Y-85.86
X230.14Y-58.79
X230.14Y-61.33
X230.14Y-63.87
X230.14Y-66.41
X230.14Y-68.95
X230.14Y-71.49
X230.14Y-74.03
X230.14Y-76.57
X230.14Y-79.11
X230.14Y-81.65
X230.14Y-84.19
X230.14Y-86.73
X230.14Y-89.27
X230.14Y-91.81
T3
X193.65Y-66.45
X196.184Y-88.0
X211.175Y-72.5
X218.55Y-88.0
T4
X98.48Y-67.47
X98.48Y-71.72
X106.1Y-67.47
X106.1Y-71.72
T5
X91.69Y-76.0
X91.69Y-84.8
X102.96Y-91.0
X105.5Y-91.0
X111.0Y-85.0
X122.293Y-56.03
X126.75Y-70.625
X127.88Y-52.02
X130.42Y-52.02
X134.76Y-56.03
X137.725Y-65.25
X140.265Y-65.25
X144.986Y-73.7
X147.67Y-55.0
X148.75Y-94.75
X150.21Y-55.0
X154.623Y-70.25
X157.162Y-70.25
X158.25Y-55.0
X164.75Y-65.5
X165.801Y-86.26
X168.341Y-86.26
X170.881Y-86.26
X173.51Y-55.0
X176.05Y-55.0
X178.725Y-86.31
X181.265Y-86.31
X183.805Y-86.31
X185.2Y-65.5
X188.325Y-82.656
X190.25Y-70.281
X192.79Y-70.281
X195.33Y-70.281
X208.17Y-70.281
X209.7Y-82.656
X210.71Y-70.281
X213.25Y-70.281
X221.349Y-65.5
T6
X90.95Y-54.2
X90.95Y-96.55
X227.55Y-54.2
X227.55Y-96.55
M30
