%TF.GenerationSoftware,KiCad,Pcbnew,8.0.2-8.0.2-0~ubuntu20.04.1*%
%TF.CreationDate,2024-05-06T11:04:01+02:00*%
%TF.ProjectId,Receiver Prototype,52656365-6976-4657-9220-50726f746f74,rev?*%
%TF.SameCoordinates,Original*%
%TF.FileFunction,Soldermask,Top*%
%TF.FilePolarity,Negative*%
%FSLAX46Y46*%
G04 Gerber Fmt 4.6, Leading zero omitted, Abs format (unit mm)*
G04 Created by KiCad (PCBNEW 8.0.2-8.0.2-0~ubuntu20.04.1) date 2024-05-06 11:04:01*
%MOMM*%
%LPD*%
G01*
G04 APERTURE LIST*
G04 Aperture macros list*
%AMRoundRect*
0 Rectangle with rounded corners*
0 $1 Rounding radius*
0 $2 $3 $4 $5 $6 $7 $8 $9 X,Y pos of 4 corners*
0 Add a 4 corners polygon primitive as box body*
4,1,4,$2,$3,$4,$5,$6,$7,$8,$9,$2,$3,0*
0 Add four circle primitives for the rounded corners*
1,1,$1+$1,$2,$3*
1,1,$1+$1,$4,$5*
1,1,$1+$1,$6,$7*
1,1,$1+$1,$8,$9*
0 Add four rect primitives between the rounded corners*
20,1,$1+$1,$2,$3,$4,$5,0*
20,1,$1+$1,$4,$5,$6,$7,0*
20,1,$1+$1,$6,$7,$8,$9,0*
20,1,$1+$1,$8,$9,$2,$3,0*%
G04 Aperture macros list end*
%ADD10RoundRect,0.237500X-0.300000X-0.237500X0.300000X-0.237500X0.300000X0.237500X-0.300000X0.237500X0*%
%ADD11C,6.400000*%
%ADD12RoundRect,0.237500X0.300000X0.237500X-0.300000X0.237500X-0.300000X-0.237500X0.300000X-0.237500X0*%
%ADD13R,1.333500X0.431800*%
%ADD14R,1.752600X2.946400*%
%ADD15R,1.700000X1.700000*%
%ADD16O,1.700000X1.700000*%
%ADD17RoundRect,0.237500X-0.250000X-0.237500X0.250000X-0.237500X0.250000X0.237500X-0.250000X0.237500X0*%
%ADD18R,1.600000X1.600000*%
%ADD19O,1.600000X1.600000*%
%ADD20RoundRect,0.237500X0.250000X0.237500X-0.250000X0.237500X-0.250000X-0.237500X0.250000X-0.237500X0*%
%ADD21RoundRect,0.250000X0.325000X0.450000X-0.325000X0.450000X-0.325000X-0.450000X0.325000X-0.450000X0*%
%ADD22RoundRect,0.141076X0.288924X2.258924X-0.288924X2.258924X-0.288924X-2.258924X0.288924X-2.258924X0*%
%ADD23RoundRect,0.221457X0.453543X2.178543X-0.453543X2.178543X-0.453543X-2.178543X0.453543X-2.178543X0*%
%ADD24R,1.803400X0.355600*%
%ADD25R,1.651000X0.431800*%
%ADD26R,1.525000X0.650000*%
%ADD27RoundRect,0.237500X-0.287500X-0.237500X0.287500X-0.237500X0.287500X0.237500X-0.287500X0.237500X0*%
%ADD28R,5.080000X1.500000*%
%ADD29R,1.500000X5.080000*%
%ADD30R,1.473200X0.558800*%
%ADD31RoundRect,0.250000X-0.325000X-0.450000X0.325000X-0.450000X0.325000X0.450000X-0.325000X0.450000X0*%
G04 APERTURE END LIST*
D10*
%TO.C,C18*%
X138225000Y-92750000D03*
X139950000Y-92750000D03*
%TD*%
D11*
%TO.C,H2*%
X90950000Y-96550000D03*
%TD*%
D12*
%TO.C,C9*%
X123244900Y-89750000D03*
X121519900Y-89750000D03*
%TD*%
D13*
%TO.C,U6*%
X193963600Y-81030517D03*
X193967450Y-81680519D03*
X193967450Y-82330517D03*
X193967450Y-82980516D03*
X193967450Y-83630517D03*
X193967450Y-84280516D03*
X198399750Y-84280519D03*
X198399750Y-83630517D03*
X198399750Y-82980519D03*
X198399750Y-82330520D03*
X198399750Y-81680519D03*
X198399750Y-81030520D03*
D14*
X196183600Y-82655518D03*
%TD*%
D15*
%TO.C,J6*%
X173510001Y-55000000D03*
D16*
X176050001Y-55000000D03*
%TD*%
D15*
%TO.C,J21*%
X158250000Y-55000000D03*
%TD*%
D10*
%TO.C,C26*%
X149637500Y-90500000D03*
X151362500Y-90500000D03*
%TD*%
D15*
%TO.C,J19*%
X126750000Y-70625000D03*
%TD*%
D17*
%TO.C,R17*%
X145837500Y-90500000D03*
X147662500Y-90500000D03*
%TD*%
D12*
%TO.C,C3*%
X123244900Y-92250000D03*
X121519900Y-92250000D03*
%TD*%
D15*
%TO.C,J16*%
X111000000Y-85000000D03*
%TD*%
D18*
%TO.C,D4*%
X98480000Y-67470000D03*
D19*
X106100000Y-67470000D03*
%TD*%
D12*
%TO.C,C7*%
X168397501Y-80057400D03*
X166672501Y-80057400D03*
%TD*%
D15*
%TO.C,J31*%
X122293500Y-56030000D03*
%TD*%
%TO.C,J25*%
X185200000Y-65500000D03*
%TD*%
D10*
%TO.C,C10*%
X176422501Y-72557400D03*
X178147501Y-72557400D03*
%TD*%
D15*
%TO.C,J5*%
X221348809Y-65500000D03*
%TD*%
D13*
%TO.C,U4*%
X214117700Y-81026859D03*
X214117700Y-81677099D03*
X214117700Y-82327339D03*
X214117700Y-82977579D03*
X214117700Y-83627819D03*
X214117700Y-84278059D03*
X218550000Y-84278059D03*
X218550000Y-83627819D03*
X218550000Y-82977579D03*
X218550000Y-82327339D03*
X218550000Y-81677099D03*
X218550000Y-81026859D03*
D14*
X216333850Y-82652459D03*
%TD*%
D20*
%TO.C,R11*%
X104492500Y-60855000D03*
X102667500Y-60855000D03*
%TD*%
D15*
%TO.C,J24*%
X157162500Y-70250000D03*
D16*
X154622500Y-70250000D03*
%TD*%
D17*
%TO.C,R15*%
X138175000Y-73209167D03*
X140000000Y-73209167D03*
%TD*%
D20*
%TO.C,R19*%
X158137500Y-92000000D03*
X156312500Y-92000000D03*
%TD*%
D15*
%TO.C,J17*%
X137725000Y-65250000D03*
D16*
X140265000Y-65250000D03*
%TD*%
D17*
%TO.C,R7*%
X180585001Y-73557400D03*
X182410001Y-73557400D03*
%TD*%
D10*
%TO.C,C30*%
X196183600Y-91010000D03*
X197908600Y-91010000D03*
%TD*%
D17*
%TO.C,R18*%
X138175000Y-89958451D03*
X140000000Y-89958451D03*
%TD*%
D15*
%TO.C,J20*%
X91690000Y-84800000D03*
%TD*%
%TO.C,J15*%
X188325000Y-82655518D03*
%TD*%
D21*
%TO.C,D6*%
X106100000Y-79380000D03*
X104050000Y-79380000D03*
%TD*%
D15*
%TO.C,J28*%
X134760000Y-56030000D03*
%TD*%
D22*
%TO.C,J14*%
X195410000Y-98247500D03*
D23*
X200325000Y-98247500D03*
X190475000Y-98247500D03*
%TD*%
D12*
%TO.C,C1*%
X117010000Y-64630000D03*
X115285000Y-64630000D03*
%TD*%
D17*
%TO.C,R5*%
X166622501Y-71027400D03*
X168447501Y-71027400D03*
%TD*%
D10*
%TO.C,C5*%
X125887500Y-83250000D03*
X127612500Y-83250000D03*
%TD*%
D24*
%TO.C,U1*%
X124935100Y-64795500D03*
X124935100Y-64160500D03*
X124935100Y-63525500D03*
X124935100Y-62890500D03*
X124935100Y-62255500D03*
X124935100Y-61620500D03*
X124935100Y-60985500D03*
X124935100Y-60350500D03*
X119829700Y-60350500D03*
X119829700Y-60985500D03*
X119829700Y-61620500D03*
X119829700Y-62255500D03*
X119829700Y-62890500D03*
X119829700Y-63525500D03*
X119829700Y-64160500D03*
X119829700Y-64795500D03*
%TD*%
D25*
%TO.C,U5*%
X144985600Y-80799998D03*
X144985600Y-81449999D03*
X144985600Y-82099997D03*
X144985600Y-82749999D03*
X144985600Y-83399997D03*
X144985600Y-84049996D03*
X144985600Y-84699997D03*
X144985600Y-85349996D03*
X144985600Y-85999997D03*
X144985600Y-86649996D03*
X152250000Y-86649998D03*
X152250000Y-86000000D03*
X152250000Y-85349999D03*
X152250000Y-84700000D03*
X152250000Y-84049999D03*
X152250000Y-83400000D03*
X152250000Y-82749999D03*
X152250000Y-82100000D03*
X152250000Y-81449999D03*
X152250000Y-80800000D03*
%TD*%
D10*
%TO.C,C22*%
X156275000Y-83874999D03*
X158000000Y-83874999D03*
%TD*%
D15*
%TO.C,J2*%
X209700000Y-82655518D03*
%TD*%
D12*
%TO.C,C23*%
X158087500Y-75750000D03*
X156362500Y-75750000D03*
%TD*%
D20*
%TO.C,R26*%
X184900000Y-90370000D03*
X183075000Y-90370000D03*
%TD*%
D26*
%TO.C,U2*%
X172073001Y-75902400D03*
X172073001Y-77172400D03*
X172073001Y-78442400D03*
X172073001Y-79712400D03*
X177497001Y-79712400D03*
X177497001Y-78442400D03*
X177497001Y-77172400D03*
X177497001Y-75902400D03*
%TD*%
D17*
%TO.C,R21*%
X156312500Y-86583332D03*
X158137500Y-86583332D03*
%TD*%
D10*
%TO.C,C31*%
X200875000Y-83609760D03*
X202600000Y-83609760D03*
%TD*%
D15*
%TO.C,J3*%
X91690000Y-76000000D03*
%TD*%
D17*
%TO.C,R16*%
X138175000Y-81583808D03*
X140000000Y-81583808D03*
%TD*%
D10*
%TO.C,C27*%
X218550000Y-90871941D03*
X220275000Y-90871941D03*
%TD*%
D17*
%TO.C,R28*%
X138175000Y-69425000D03*
X140000000Y-69425000D03*
%TD*%
D15*
%TO.C,J18*%
X102960000Y-91000000D03*
D16*
X105500000Y-91000000D03*
%TD*%
D10*
%TO.C,C15*%
X114975000Y-87750000D03*
X116700000Y-87750000D03*
%TD*%
D17*
%TO.C,R22*%
X220957500Y-85900000D03*
X222782500Y-85900000D03*
%TD*%
D10*
%TO.C,C16*%
X138225000Y-76000714D03*
X139950000Y-76000714D03*
%TD*%
D15*
%TO.C,J10*%
X144985600Y-73700000D03*
%TD*%
D10*
%TO.C,C32*%
X198399750Y-79100000D03*
X200124750Y-79100000D03*
%TD*%
%TO.C,C20*%
X138225000Y-84375355D03*
X139950000Y-84375355D03*
%TD*%
%TO.C,C14*%
X180635001Y-75807400D03*
X182360001Y-75807400D03*
%TD*%
%TO.C,C29*%
X221007500Y-83609760D03*
X222732500Y-83609760D03*
%TD*%
D12*
%TO.C,C19*%
X139950000Y-87166903D03*
X138225000Y-87166903D03*
%TD*%
D27*
%TO.C,D2*%
X98247500Y-57740000D03*
X99997500Y-57740000D03*
%TD*%
D10*
%TO.C,C28*%
X218550000Y-79100000D03*
X220275000Y-79100000D03*
%TD*%
D28*
%TO.C,J4*%
X89380000Y-65060000D03*
X89380000Y-69310000D03*
X89380000Y-60810000D03*
%TD*%
D17*
%TO.C,R6*%
X180585001Y-78057400D03*
X182410001Y-78057400D03*
%TD*%
%TO.C,R4*%
X171660001Y-72557400D03*
X173485001Y-72557400D03*
%TD*%
%TO.C,R10*%
X125837500Y-75475000D03*
X127662500Y-75475000D03*
%TD*%
D20*
%TO.C,R3*%
X168447501Y-77807400D03*
X166622501Y-77807400D03*
%TD*%
D29*
%TO.C,J12*%
X128500000Y-98137500D03*
X132750000Y-98137500D03*
X124250000Y-98137500D03*
%TD*%
D20*
%TO.C,R27*%
X179760000Y-90380000D03*
X177935000Y-90380000D03*
%TD*%
D27*
%TO.C,D1*%
X98247500Y-60855000D03*
X99997500Y-60855000D03*
%TD*%
D12*
%TO.C,C36*%
X129982500Y-59030000D03*
X128257500Y-59030000D03*
%TD*%
D30*
%TO.C,U3*%
X121264800Y-85599998D03*
X121264800Y-86549999D03*
X121264800Y-87500000D03*
X123500000Y-87500000D03*
X123500000Y-86549999D03*
X123500000Y-85599998D03*
%TD*%
D29*
%TO.C,J8*%
X179716666Y-98137500D03*
X183966666Y-98137500D03*
X175466666Y-98137500D03*
%TD*%
D17*
%TO.C,R23*%
X103322500Y-88020000D03*
X105147500Y-88020000D03*
%TD*%
D15*
%TO.C,J30*%
X183805000Y-86310000D03*
D16*
X181265000Y-86310000D03*
X178725000Y-86310000D03*
%TD*%
D17*
%TO.C,R9*%
X114925000Y-85000000D03*
X116750000Y-85000000D03*
%TD*%
D20*
%TO.C,R12*%
X104492500Y-57740000D03*
X102667500Y-57740000D03*
%TD*%
D22*
%TO.C,J13*%
X214650000Y-98247500D03*
D23*
X219565000Y-98247500D03*
X209715000Y-98247500D03*
%TD*%
D31*
%TO.C,D5*%
X104050000Y-75400000D03*
X106100000Y-75400000D03*
%TD*%
D12*
%TO.C,C4*%
X117010000Y-61920000D03*
X115285000Y-61920000D03*
%TD*%
D20*
%TO.C,R25*%
X166570595Y-90390000D03*
X164745595Y-90390000D03*
%TD*%
D29*
%TO.C,J11*%
X114000000Y-98137500D03*
X118250000Y-98137500D03*
X109750000Y-98137500D03*
%TD*%
D15*
%TO.C,J22*%
X148750000Y-94750000D03*
%TD*%
D12*
%TO.C,C2*%
X119829700Y-58770000D03*
X118104700Y-58770000D03*
%TD*%
%TO.C,C8*%
X127612500Y-85166666D03*
X125887500Y-85166666D03*
%TD*%
D17*
%TO.C,R13*%
X125837500Y-77888750D03*
X127662500Y-77888750D03*
%TD*%
D10*
%TO.C,C24*%
X156412500Y-81166666D03*
X158137500Y-81166666D03*
%TD*%
D18*
%TO.C,D3*%
X106100000Y-71720000D03*
D19*
X98480000Y-71720000D03*
%TD*%
D17*
%TO.C,R1*%
X117060000Y-69750000D03*
X118885000Y-69750000D03*
%TD*%
D12*
%TO.C,C37*%
X129982500Y-56030000D03*
X128257500Y-56030000D03*
%TD*%
D15*
%TO.C,J23*%
X150210000Y-55000000D03*
D16*
X147670000Y-55000000D03*
%TD*%
D12*
%TO.C,C12*%
X168397501Y-75557400D03*
X166672501Y-75557400D03*
%TD*%
D11*
%TO.C,H3*%
X227550000Y-96550000D03*
%TD*%
D15*
%TO.C,J9*%
X164750000Y-65500000D03*
%TD*%
D10*
%TO.C,C13*%
X180635001Y-71307400D03*
X182360001Y-71307400D03*
%TD*%
D17*
%TO.C,R14*%
X125837500Y-80250000D03*
X127662500Y-80250000D03*
%TD*%
D15*
%TO.C,J27*%
X190250001Y-70281118D03*
D16*
X192790001Y-70281118D03*
X195330001Y-70281118D03*
%TD*%
D20*
%TO.C,R8*%
X182410001Y-80307400D03*
X180585001Y-80307400D03*
%TD*%
D11*
%TO.C,H4*%
X227550000Y-54200000D03*
%TD*%
D10*
%TO.C,C6*%
X121431000Y-66475000D03*
X123156000Y-66475000D03*
%TD*%
%TO.C,C25*%
X156362500Y-89291665D03*
X158087500Y-89291665D03*
%TD*%
D12*
%TO.C,C17*%
X139750000Y-78792261D03*
X138025000Y-78792261D03*
%TD*%
D15*
%TO.C,J29*%
X170880595Y-86260000D03*
D16*
X168340595Y-86260000D03*
X165800595Y-86260000D03*
%TD*%
D10*
%TO.C,C21*%
X156362500Y-78458333D03*
X158087500Y-78458333D03*
%TD*%
D17*
%TO.C,R2*%
X115235000Y-67225000D03*
X117060000Y-67225000D03*
%TD*%
%TO.C,R20*%
X200825000Y-85900000D03*
X202650000Y-85900000D03*
%TD*%
D12*
%TO.C,C11*%
X168397501Y-73277400D03*
X166672501Y-73277400D03*
%TD*%
D15*
%TO.C,J1*%
X130420000Y-52020000D03*
D16*
X127880000Y-52020000D03*
%TD*%
D11*
%TO.C,H1*%
X90950000Y-54200000D03*
%TD*%
D15*
%TO.C,J26*%
X208170000Y-70281118D03*
D16*
X210710000Y-70281118D03*
X213250000Y-70281118D03*
%TD*%
D20*
%TO.C,R24*%
X171940595Y-90390000D03*
X170115595Y-90390000D03*
%TD*%
D29*
%TO.C,J7*%
X165250000Y-98137500D03*
X169500000Y-98137500D03*
X161000000Y-98137500D03*
%TD*%
M02*
