%TF.GenerationSoftware,KiCad,Pcbnew,8.0.2-8.0.2-0~ubuntu20.04.1*%
%TF.CreationDate,2024-05-06T11:04:01+02:00*%
%TF.ProjectId,Receiver Prototype,52656365-6976-4657-9220-50726f746f74,rev?*%
%TF.SameCoordinates,Original*%
%TF.FileFunction,Legend,Bot*%
%TF.FilePolarity,Positive*%
%FSLAX46Y46*%
G04 Gerber Fmt 4.6, Leading zero omitted, Abs format (unit mm)*
G04 Created by KiCad (PCBNEW 8.0.2-8.0.2-0~ubuntu20.04.1) date 2024-05-06 11:04:01*
%MOMM*%
%LPD*%
G01*
G04 APERTURE LIST*
%ADD10C,0.100000*%
%ADD11C,0.350000*%
%ADD12C,0.254000*%
G04 APERTURE END LIST*
D10*
X218184687Y-54911919D02*
X218518020Y-54435728D01*
X218756115Y-54911919D02*
X218756115Y-53911919D01*
X218756115Y-53911919D02*
X218375163Y-53911919D01*
X218375163Y-53911919D02*
X218279925Y-53959538D01*
X218279925Y-53959538D02*
X218232306Y-54007157D01*
X218232306Y-54007157D02*
X218184687Y-54102395D01*
X218184687Y-54102395D02*
X218184687Y-54245252D01*
X218184687Y-54245252D02*
X218232306Y-54340490D01*
X218232306Y-54340490D02*
X218279925Y-54388109D01*
X218279925Y-54388109D02*
X218375163Y-54435728D01*
X218375163Y-54435728D02*
X218756115Y-54435728D01*
X217375163Y-54864300D02*
X217470401Y-54911919D01*
X217470401Y-54911919D02*
X217660877Y-54911919D01*
X217660877Y-54911919D02*
X217756115Y-54864300D01*
X217756115Y-54864300D02*
X217803734Y-54769061D01*
X217803734Y-54769061D02*
X217803734Y-54388109D01*
X217803734Y-54388109D02*
X217756115Y-54292871D01*
X217756115Y-54292871D02*
X217660877Y-54245252D01*
X217660877Y-54245252D02*
X217470401Y-54245252D01*
X217470401Y-54245252D02*
X217375163Y-54292871D01*
X217375163Y-54292871D02*
X217327544Y-54388109D01*
X217327544Y-54388109D02*
X217327544Y-54483347D01*
X217327544Y-54483347D02*
X217803734Y-54578585D01*
X216470401Y-54864300D02*
X216565639Y-54911919D01*
X216565639Y-54911919D02*
X216756115Y-54911919D01*
X216756115Y-54911919D02*
X216851353Y-54864300D01*
X216851353Y-54864300D02*
X216898972Y-54816680D01*
X216898972Y-54816680D02*
X216946591Y-54721442D01*
X216946591Y-54721442D02*
X216946591Y-54435728D01*
X216946591Y-54435728D02*
X216898972Y-54340490D01*
X216898972Y-54340490D02*
X216851353Y-54292871D01*
X216851353Y-54292871D02*
X216756115Y-54245252D01*
X216756115Y-54245252D02*
X216565639Y-54245252D01*
X216565639Y-54245252D02*
X216470401Y-54292871D01*
X215660877Y-54864300D02*
X215756115Y-54911919D01*
X215756115Y-54911919D02*
X215946591Y-54911919D01*
X215946591Y-54911919D02*
X216041829Y-54864300D01*
X216041829Y-54864300D02*
X216089448Y-54769061D01*
X216089448Y-54769061D02*
X216089448Y-54388109D01*
X216089448Y-54388109D02*
X216041829Y-54292871D01*
X216041829Y-54292871D02*
X215946591Y-54245252D01*
X215946591Y-54245252D02*
X215756115Y-54245252D01*
X215756115Y-54245252D02*
X215660877Y-54292871D01*
X215660877Y-54292871D02*
X215613258Y-54388109D01*
X215613258Y-54388109D02*
X215613258Y-54483347D01*
X215613258Y-54483347D02*
X216089448Y-54578585D01*
X215184686Y-54911919D02*
X215184686Y-54245252D01*
X215184686Y-53911919D02*
X215232305Y-53959538D01*
X215232305Y-53959538D02*
X215184686Y-54007157D01*
X215184686Y-54007157D02*
X215137067Y-53959538D01*
X215137067Y-53959538D02*
X215184686Y-53911919D01*
X215184686Y-53911919D02*
X215184686Y-54007157D01*
X214803734Y-54245252D02*
X214565639Y-54911919D01*
X214565639Y-54911919D02*
X214327544Y-54245252D01*
X213565639Y-54864300D02*
X213660877Y-54911919D01*
X213660877Y-54911919D02*
X213851353Y-54911919D01*
X213851353Y-54911919D02*
X213946591Y-54864300D01*
X213946591Y-54864300D02*
X213994210Y-54769061D01*
X213994210Y-54769061D02*
X213994210Y-54388109D01*
X213994210Y-54388109D02*
X213946591Y-54292871D01*
X213946591Y-54292871D02*
X213851353Y-54245252D01*
X213851353Y-54245252D02*
X213660877Y-54245252D01*
X213660877Y-54245252D02*
X213565639Y-54292871D01*
X213565639Y-54292871D02*
X213518020Y-54388109D01*
X213518020Y-54388109D02*
X213518020Y-54483347D01*
X213518020Y-54483347D02*
X213994210Y-54578585D01*
X213089448Y-54911919D02*
X213089448Y-54245252D01*
X213089448Y-54435728D02*
X213041829Y-54340490D01*
X213041829Y-54340490D02*
X212994210Y-54292871D01*
X212994210Y-54292871D02*
X212898972Y-54245252D01*
X212898972Y-54245252D02*
X212803734Y-54245252D01*
X211184686Y-54911919D02*
X211756114Y-54911919D01*
X211470400Y-54911919D02*
X211470400Y-53911919D01*
X211470400Y-53911919D02*
X211565638Y-54054776D01*
X211565638Y-54054776D02*
X211660876Y-54150014D01*
X211660876Y-54150014D02*
X211756114Y-54197633D01*
X210756114Y-54816680D02*
X210708495Y-54864300D01*
X210708495Y-54864300D02*
X210756114Y-54911919D01*
X210756114Y-54911919D02*
X210803733Y-54864300D01*
X210803733Y-54864300D02*
X210756114Y-54816680D01*
X210756114Y-54816680D02*
X210756114Y-54911919D01*
X210089448Y-53911919D02*
X209994210Y-53911919D01*
X209994210Y-53911919D02*
X209898972Y-53959538D01*
X209898972Y-53959538D02*
X209851353Y-54007157D01*
X209851353Y-54007157D02*
X209803734Y-54102395D01*
X209803734Y-54102395D02*
X209756115Y-54292871D01*
X209756115Y-54292871D02*
X209756115Y-54530966D01*
X209756115Y-54530966D02*
X209803734Y-54721442D01*
X209803734Y-54721442D02*
X209851353Y-54816680D01*
X209851353Y-54816680D02*
X209898972Y-54864300D01*
X209898972Y-54864300D02*
X209994210Y-54911919D01*
X209994210Y-54911919D02*
X210089448Y-54911919D01*
X210089448Y-54911919D02*
X210184686Y-54864300D01*
X210184686Y-54864300D02*
X210232305Y-54816680D01*
X210232305Y-54816680D02*
X210279924Y-54721442D01*
X210279924Y-54721442D02*
X210327543Y-54530966D01*
X210327543Y-54530966D02*
X210327543Y-54292871D01*
X210327543Y-54292871D02*
X210279924Y-54102395D01*
X210279924Y-54102395D02*
X210232305Y-54007157D01*
X210232305Y-54007157D02*
X210184686Y-53959538D01*
X210184686Y-53959538D02*
X210089448Y-53911919D01*
X208613257Y-54007157D02*
X208565638Y-53959538D01*
X208565638Y-53959538D02*
X208470400Y-53911919D01*
X208470400Y-53911919D02*
X208232305Y-53911919D01*
X208232305Y-53911919D02*
X208137067Y-53959538D01*
X208137067Y-53959538D02*
X208089448Y-54007157D01*
X208089448Y-54007157D02*
X208041829Y-54102395D01*
X208041829Y-54102395D02*
X208041829Y-54197633D01*
X208041829Y-54197633D02*
X208089448Y-54340490D01*
X208089448Y-54340490D02*
X208660876Y-54911919D01*
X208660876Y-54911919D02*
X208041829Y-54911919D01*
X207422781Y-53911919D02*
X207327543Y-53911919D01*
X207327543Y-53911919D02*
X207232305Y-53959538D01*
X207232305Y-53959538D02*
X207184686Y-54007157D01*
X207184686Y-54007157D02*
X207137067Y-54102395D01*
X207137067Y-54102395D02*
X207089448Y-54292871D01*
X207089448Y-54292871D02*
X207089448Y-54530966D01*
X207089448Y-54530966D02*
X207137067Y-54721442D01*
X207137067Y-54721442D02*
X207184686Y-54816680D01*
X207184686Y-54816680D02*
X207232305Y-54864300D01*
X207232305Y-54864300D02*
X207327543Y-54911919D01*
X207327543Y-54911919D02*
X207422781Y-54911919D01*
X207422781Y-54911919D02*
X207518019Y-54864300D01*
X207518019Y-54864300D02*
X207565638Y-54816680D01*
X207565638Y-54816680D02*
X207613257Y-54721442D01*
X207613257Y-54721442D02*
X207660876Y-54530966D01*
X207660876Y-54530966D02*
X207660876Y-54292871D01*
X207660876Y-54292871D02*
X207613257Y-54102395D01*
X207613257Y-54102395D02*
X207565638Y-54007157D01*
X207565638Y-54007157D02*
X207518019Y-53959538D01*
X207518019Y-53959538D02*
X207422781Y-53911919D01*
X206708495Y-54007157D02*
X206660876Y-53959538D01*
X206660876Y-53959538D02*
X206565638Y-53911919D01*
X206565638Y-53911919D02*
X206327543Y-53911919D01*
X206327543Y-53911919D02*
X206232305Y-53959538D01*
X206232305Y-53959538D02*
X206184686Y-54007157D01*
X206184686Y-54007157D02*
X206137067Y-54102395D01*
X206137067Y-54102395D02*
X206137067Y-54197633D01*
X206137067Y-54197633D02*
X206184686Y-54340490D01*
X206184686Y-54340490D02*
X206756114Y-54911919D01*
X206756114Y-54911919D02*
X206137067Y-54911919D01*
X205279924Y-54245252D02*
X205279924Y-54911919D01*
X205518019Y-53864300D02*
X205756114Y-54578585D01*
X205756114Y-54578585D02*
X205137067Y-54578585D01*
X204756114Y-54530966D02*
X203994210Y-54530966D01*
X203327543Y-53911919D02*
X203232305Y-53911919D01*
X203232305Y-53911919D02*
X203137067Y-53959538D01*
X203137067Y-53959538D02*
X203089448Y-54007157D01*
X203089448Y-54007157D02*
X203041829Y-54102395D01*
X203041829Y-54102395D02*
X202994210Y-54292871D01*
X202994210Y-54292871D02*
X202994210Y-54530966D01*
X202994210Y-54530966D02*
X203041829Y-54721442D01*
X203041829Y-54721442D02*
X203089448Y-54816680D01*
X203089448Y-54816680D02*
X203137067Y-54864300D01*
X203137067Y-54864300D02*
X203232305Y-54911919D01*
X203232305Y-54911919D02*
X203327543Y-54911919D01*
X203327543Y-54911919D02*
X203422781Y-54864300D01*
X203422781Y-54864300D02*
X203470400Y-54816680D01*
X203470400Y-54816680D02*
X203518019Y-54721442D01*
X203518019Y-54721442D02*
X203565638Y-54530966D01*
X203565638Y-54530966D02*
X203565638Y-54292871D01*
X203565638Y-54292871D02*
X203518019Y-54102395D01*
X203518019Y-54102395D02*
X203470400Y-54007157D01*
X203470400Y-54007157D02*
X203422781Y-53959538D01*
X203422781Y-53959538D02*
X203327543Y-53911919D01*
X202089448Y-53911919D02*
X202565638Y-53911919D01*
X202565638Y-53911919D02*
X202613257Y-54388109D01*
X202613257Y-54388109D02*
X202565638Y-54340490D01*
X202565638Y-54340490D02*
X202470400Y-54292871D01*
X202470400Y-54292871D02*
X202232305Y-54292871D01*
X202232305Y-54292871D02*
X202137067Y-54340490D01*
X202137067Y-54340490D02*
X202089448Y-54388109D01*
X202089448Y-54388109D02*
X202041829Y-54483347D01*
X202041829Y-54483347D02*
X202041829Y-54721442D01*
X202041829Y-54721442D02*
X202089448Y-54816680D01*
X202089448Y-54816680D02*
X202137067Y-54864300D01*
X202137067Y-54864300D02*
X202232305Y-54911919D01*
X202232305Y-54911919D02*
X202470400Y-54911919D01*
X202470400Y-54911919D02*
X202565638Y-54864300D01*
X202565638Y-54864300D02*
X202613257Y-54816680D01*
X201613257Y-54530966D02*
X200851353Y-54530966D01*
X200184686Y-53911919D02*
X200089448Y-53911919D01*
X200089448Y-53911919D02*
X199994210Y-53959538D01*
X199994210Y-53959538D02*
X199946591Y-54007157D01*
X199946591Y-54007157D02*
X199898972Y-54102395D01*
X199898972Y-54102395D02*
X199851353Y-54292871D01*
X199851353Y-54292871D02*
X199851353Y-54530966D01*
X199851353Y-54530966D02*
X199898972Y-54721442D01*
X199898972Y-54721442D02*
X199946591Y-54816680D01*
X199946591Y-54816680D02*
X199994210Y-54864300D01*
X199994210Y-54864300D02*
X200089448Y-54911919D01*
X200089448Y-54911919D02*
X200184686Y-54911919D01*
X200184686Y-54911919D02*
X200279924Y-54864300D01*
X200279924Y-54864300D02*
X200327543Y-54816680D01*
X200327543Y-54816680D02*
X200375162Y-54721442D01*
X200375162Y-54721442D02*
X200422781Y-54530966D01*
X200422781Y-54530966D02*
X200422781Y-54292871D01*
X200422781Y-54292871D02*
X200375162Y-54102395D01*
X200375162Y-54102395D02*
X200327543Y-54007157D01*
X200327543Y-54007157D02*
X200279924Y-53959538D01*
X200279924Y-53959538D02*
X200184686Y-53911919D01*
X198994210Y-53911919D02*
X199184686Y-53911919D01*
X199184686Y-53911919D02*
X199279924Y-53959538D01*
X199279924Y-53959538D02*
X199327543Y-54007157D01*
X199327543Y-54007157D02*
X199422781Y-54150014D01*
X199422781Y-54150014D02*
X199470400Y-54340490D01*
X199470400Y-54340490D02*
X199470400Y-54721442D01*
X199470400Y-54721442D02*
X199422781Y-54816680D01*
X199422781Y-54816680D02*
X199375162Y-54864300D01*
X199375162Y-54864300D02*
X199279924Y-54911919D01*
X199279924Y-54911919D02*
X199089448Y-54911919D01*
X199089448Y-54911919D02*
X198994210Y-54864300D01*
X198994210Y-54864300D02*
X198946591Y-54816680D01*
X198946591Y-54816680D02*
X198898972Y-54721442D01*
X198898972Y-54721442D02*
X198898972Y-54483347D01*
X198898972Y-54483347D02*
X198946591Y-54388109D01*
X198946591Y-54388109D02*
X198994210Y-54340490D01*
X198994210Y-54340490D02*
X199089448Y-54292871D01*
X199089448Y-54292871D02*
X199279924Y-54292871D01*
X199279924Y-54292871D02*
X199375162Y-54340490D01*
X199375162Y-54340490D02*
X199422781Y-54388109D01*
X199422781Y-54388109D02*
X199470400Y-54483347D01*
D11*
X90950000Y-96550000D03*
X173510001Y-55000000D03*
X176050001Y-55000000D03*
X158250000Y-55000000D03*
X126750000Y-70625000D03*
X111000000Y-85000000D03*
X98480000Y-67470000D03*
X106100000Y-67470000D03*
X122293500Y-56030000D03*
X185200000Y-65500000D03*
X221348809Y-65500000D03*
D12*
X215833850Y-81662459D03*
X215833850Y-82662459D03*
X215833850Y-83662459D03*
X216833850Y-81662459D03*
X216833850Y-82662459D03*
X216833850Y-83662459D03*
D11*
X157162500Y-70250000D03*
X154622500Y-70250000D03*
X137725000Y-65250000D03*
X140265000Y-65250000D03*
X91690000Y-84800000D03*
X188325000Y-82655518D03*
X134760000Y-56030000D03*
X209700000Y-82655518D03*
X91690000Y-76000000D03*
X102960000Y-91000000D03*
X105500000Y-91000000D03*
X144985600Y-73700000D03*
X183805000Y-86310000D03*
X181265000Y-86310000D03*
X178725000Y-86310000D03*
X148750000Y-94750000D03*
X106100000Y-71720000D03*
X98480000Y-71720000D03*
X150210000Y-55000000D03*
X147670000Y-55000000D03*
X227550000Y-96550000D03*
X164750000Y-65500000D03*
X190250001Y-70281118D03*
X192790001Y-70281118D03*
X195330001Y-70281118D03*
X227550000Y-54200000D03*
X170880595Y-86260000D03*
X168340595Y-86260000D03*
X165800595Y-86260000D03*
X130420000Y-52020000D03*
X127880000Y-52020000D03*
X90950000Y-54200000D03*
X208170000Y-70281118D03*
X210710000Y-70281118D03*
X213250000Y-70281118D03*
M02*
