M48
METRIC,TZ
T1C0.254
T2C0.300
T3C0.500
T4C0.800
T5C1.000
T6C3.200
%
G90
G05
T1
X215834Y-81662
X215834Y-82662
X215834Y-83662
X216834Y-81662
X216834Y-82662
X216834Y-83662
T2
X88050Y-72625
X88050Y-75165
X88050Y-77705
X88050Y-80245
X88050Y-82785
X88050Y-85325
X88050Y-87865
X88050Y-90405
X89380Y-58770
X89380Y-62935
X89380Y-67185
X89380Y-71250
X92925Y-60855
X92925Y-69300
X94871Y-99110
X95680Y-52830
X96750Y-67470
X96750Y-71720
X96820Y-57725
X96820Y-60855
X97214Y-99110
X98200Y-56315
X98200Y-62325
X98220Y-52830
X98250Y-59297
X98480Y-69595
X98480Y-73525
X99557Y-99110
X100760Y-52830
X101900Y-99110
X102250Y-75400
X102250Y-79380
X103300Y-52830
X103325Y-86775
X104050Y-73525
X104050Y-77390
X104050Y-81000
X104243Y-99110
X105000Y-56175
X105050Y-62425
X105840Y-52830
X106586Y-99110
X106950Y-88130
X107400Y-98190
X108380Y-52830
X108813Y-65060
X109750Y-94560
X110920Y-52830
X111900Y-98190
X113460Y-52830
X113600Y-61920
X113600Y-64625
X113600Y-67225
X115250Y-63275
X115250Y-65975
X116000Y-52830
X116190Y-98190
X116600Y-58770
X116775Y-83600
X116775Y-86412
X117000Y-63275
X118105Y-57375
X118180Y-84990
X118220Y-94560
X118251Y-60336
X118256Y-62588
X118275Y-63525
X118275Y-66650
X118540Y-52830
X119500Y-86000
X120125Y-68100
X120220Y-89700
X120220Y-92290
X121080Y-52830
X121190Y-58770
X121210Y-98190
X121510Y-93610
X122390Y-60860
X123130Y-93610
X123156Y-67675
X124290Y-94560
X124375Y-76700
X124375Y-78790
X124425Y-80250
X124425Y-83250
X124550Y-66475
X125250Y-88000
X125280Y-90150
X125940Y-81800
X126290Y-98190
X126500Y-86750
X127750Y-81750
X128490Y-88250
X129100Y-83275
X129125Y-85125
X130580Y-98190
X132740Y-94560
X134750Y-93750
X134980Y-98190
X135780Y-52830
X136630Y-73230
X136630Y-75920
X136630Y-78790
X136630Y-81550
X136630Y-84390
X136893Y-99110
X138170Y-71600
X138320Y-52830
X139236Y-99110
X139740Y-80220
X139950Y-85730
X140860Y-52830
X141520Y-85730
X141579Y-99110
X141670Y-82180
X141730Y-87550
X142950Y-82180
X143400Y-52830
X143922Y-99110
X145940Y-52830
X146230Y-91870
X146265Y-99110
X148450Y-85610
X148480Y-52830
X148608Y-99110
X148800Y-91870
X149750Y-83500
X150140Y-80800
X150190Y-79070
X150500Y-85050
X150620Y-88750
X150951Y-99110
X151020Y-52830
X151370Y-91870
X152840Y-90510
X153294Y-99110
X153560Y-52830
X154290Y-82720
X154350Y-83940
X155637Y-99110
X156100Y-52830
X157000Y-82500
X157980Y-99110
X158050Y-74250
X158090Y-79850
X158090Y-90610
X158100Y-77050
X158110Y-87920
X158640Y-52830
X158750Y-96960
X159440Y-83870
X159510Y-75740
X159510Y-78445
X159510Y-81150
X159520Y-89240
X160630Y-70670
X161000Y-94290
X161180Y-52830
X162030Y-90460
X163060Y-96960
X163060Y-99110
X163720Y-52830
X166260Y-52830
X166675Y-74450
X166675Y-76625
X166675Y-78950
X167000Y-82000
X167310Y-96960
X167310Y-99110
X168800Y-52830
X169470Y-94290
X169600Y-71000
X170000Y-77807
X170285Y-75057
X170650Y-81920
X171120Y-71390
X171340Y-52830
X171650Y-99110
X171725Y-74450
X172490Y-96960
X173110Y-52810
X173220Y-99110
X173613Y-81920
X175070Y-71110
X175300Y-90420
X175540Y-94290
X175650Y-52810
X176425Y-73675
X176577Y-81920
X177250Y-74480
X177630Y-96960
X177630Y-99110
X178130Y-71110
X178190Y-52810
X179310Y-75810
X179540Y-81920
X180730Y-52810
X181500Y-74750
X181500Y-77000
X181840Y-96960
X181840Y-99110
X183270Y-52810
X183810Y-79190
X183810Y-74875
X183990Y-94290
X185130Y-75780
X185130Y-78057
X185810Y-52810
X186543Y-96950
X186543Y-99110
X188064Y-96950
X188064Y-99110
X188350Y-52810
X190475Y-94290
X190890Y-52810
X192200Y-80735
X192200Y-82505
X192200Y-84275
X193300Y-96950
X193300Y-99110
X193430Y-52810
X193967Y-85475
X195970Y-52810
X197450Y-96950
X197450Y-99110
X197925Y-89550
X197925Y-92325
X198510Y-52810
X199325Y-91010
X200125Y-77750
X200125Y-80575
X200125Y-82070
X200325Y-94290
X201050Y-52810
X201675Y-79100
X202550Y-96950
X202550Y-99110
X202600Y-82070
X202600Y-84760
X202600Y-87210
X203590Y-52810
X203975Y-83530
X203975Y-85860
X206130Y-52810
X207575Y-96950
X207575Y-99110
X208670Y-52810
X209750Y-94290
X211210Y-52810
X212500Y-79547
X212500Y-96950
X212500Y-99110
X213750Y-52810
X215040Y-79547
X215390Y-85747
X216290Y-52810
X216750Y-96950
X216750Y-99110
X216770Y-85747
X218830Y-52810
X219625Y-94290
X220275Y-77775
X220275Y-80350
X220275Y-89397
X220275Y-92372
X220980Y-82070
X221370Y-52810
X221725Y-79100
X221810Y-90872
X222733Y-82070
X222733Y-84760
X222733Y-87210
X224210Y-92800
X224210Y-99110
X224240Y-83530
X224240Y-85860
X230140Y-58790
X230140Y-61330
X230140Y-63870
X230140Y-66410
X230140Y-68950
X230140Y-71490
X230140Y-74030
X230140Y-76570
X230140Y-79110
X230140Y-81650
X230140Y-84190
X230140Y-86730
X230140Y-89270
X230140Y-91810
T3
X193650Y-66450
X196184Y-88000
X211175Y-72500
X218550Y-88000
T4
X98480Y-67470
X98480Y-71720
X106100Y-67470
X106100Y-71720
T5
X91690Y-76000
X91690Y-84800
X102960Y-91000
X105500Y-91000
X111000Y-85000
X122293Y-56030
X126750Y-70625
X127880Y-52020
X130420Y-52020
X134760Y-56030
X137725Y-65250
X140265Y-65250
X144986Y-73700
X147670Y-55000
X148750Y-94750
X150210Y-55000
X154623Y-70250
X157163Y-70250
X158250Y-55000
X164750Y-65500
X165801Y-86260
X168341Y-86260
X170881Y-86260
X173510Y-55000
X176050Y-55000
X178725Y-86310
X181265Y-86310
X183805Y-86310
X185200Y-65500
X188325Y-82656
X190250Y-70281
X192790Y-70281
X195330Y-70281
X208170Y-70281
X209700Y-82656
X210710Y-70281
X213250Y-70281
X221349Y-65500
T6
X90950Y-54200
X90950Y-96550
X227550Y-54200
X227550Y-96550
M30
