%TF.GenerationSoftware,KiCad,Pcbnew,8.0.1*%
%TF.CreationDate,2024-04-15T14:56:09+02:00*%
%TF.ProjectId,Transmitter prototype,5472616e-736d-4697-9474-65722070726f,rev?*%
%TF.SameCoordinates,Original*%
%TF.FileFunction,Copper,L1,Top*%
%TF.FilePolarity,Positive*%
%FSLAX46Y46*%
G04 Gerber Fmt 4.6, Leading zero omitted, Abs format (unit mm)*
G04 Created by KiCad (PCBNEW 8.0.1) date 2024-04-15 14:56:09*
%MOMM*%
%LPD*%
G01*
G04 APERTURE LIST*
G04 Aperture macros list*
%AMRoundRect*
0 Rectangle with rounded corners*
0 $1 Rounding radius*
0 $2 $3 $4 $5 $6 $7 $8 $9 X,Y pos of 4 corners*
0 Add a 4 corners polygon primitive as box body*
4,1,4,$2,$3,$4,$5,$6,$7,$8,$9,$2,$3,0*
0 Add four circle primitives for the rounded corners*
1,1,$1+$1,$2,$3*
1,1,$1+$1,$4,$5*
1,1,$1+$1,$6,$7*
1,1,$1+$1,$8,$9*
0 Add four rect primitives between the rounded corners*
20,1,$1+$1,$2,$3,$4,$5,0*
20,1,$1+$1,$4,$5,$6,$7,0*
20,1,$1+$1,$6,$7,$8,$9,0*
20,1,$1+$1,$8,$9,$2,$3,0*%
G04 Aperture macros list end*
%TA.AperFunction,ComponentPad*%
%ADD10C,5.000000*%
%TD*%
%TA.AperFunction,SMDPad,CuDef*%
%ADD11RoundRect,0.250000X-0.337500X-0.475000X0.337500X-0.475000X0.337500X0.475000X-0.337500X0.475000X0*%
%TD*%
%TA.AperFunction,SMDPad,CuDef*%
%ADD12RoundRect,0.250000X-0.475000X0.337500X-0.475000X-0.337500X0.475000X-0.337500X0.475000X0.337500X0*%
%TD*%
%TA.AperFunction,ComponentPad*%
%ADD13R,1.700000X1.700000*%
%TD*%
%TA.AperFunction,ComponentPad*%
%ADD14O,1.700000X1.700000*%
%TD*%
%TA.AperFunction,SMDPad,CuDef*%
%ADD15RoundRect,0.250000X0.337500X0.475000X-0.337500X0.475000X-0.337500X-0.475000X0.337500X-0.475000X0*%
%TD*%
%TA.AperFunction,SMDPad,CuDef*%
%ADD16R,1.454899X0.354800*%
%TD*%
%TA.AperFunction,ComponentPad*%
%ADD17C,1.803400*%
%TD*%
%TA.AperFunction,ComponentPad*%
%ADD18C,2.006600*%
%TD*%
%TA.AperFunction,SMDPad,CuDef*%
%ADD19RoundRect,0.250000X0.350000X0.450000X-0.350000X0.450000X-0.350000X-0.450000X0.350000X-0.450000X0*%
%TD*%
%TA.AperFunction,Conductor*%
%ADD20C,0.250000*%
%TD*%
%TA.AperFunction,Conductor*%
%ADD21C,0.500000*%
%TD*%
%TA.AperFunction,Conductor*%
%ADD22C,0.400000*%
%TD*%
%TA.AperFunction,Conductor*%
%ADD23C,0.355600*%
%TD*%
%TA.AperFunction,Conductor*%
%ADD24C,0.335600*%
%TD*%
%TA.AperFunction,Conductor*%
%ADD25C,0.450000*%
%TD*%
G04 APERTURE END LIST*
D10*
%TO.P,H3,1*%
%TO.N,N/C*%
X179019200Y-99568000D03*
%TD*%
D11*
%TO.P,C5,1*%
%TO.N,-5V*%
X170514100Y-97790000D03*
%TO.P,C5,2*%
%TO.N,GND*%
X172589100Y-97790000D03*
%TD*%
%TO.P,C6,1*%
%TO.N,GND*%
X164752200Y-95808800D03*
%TO.P,C6,2*%
%TO.N,+5V*%
X166827200Y-95808800D03*
%TD*%
D12*
%TO.P,C1,1*%
%TO.N,Net-(J1-In)*%
X163195000Y-85090000D03*
%TO.P,C1,2*%
%TO.N,Net-(U1-INA+)*%
X163195000Y-87165000D03*
%TD*%
D13*
%TO.P,J3,1,Pin_1*%
%TO.N,GND*%
X176834800Y-78790800D03*
D14*
%TO.P,J3,2,Pin_2*%
%TO.N,-5V*%
X174294800Y-78790800D03*
%TO.P,J3,3,Pin_3*%
%TO.N,+5V*%
X171754800Y-78790800D03*
%TD*%
D13*
%TO.P,J5,1,Pin_1*%
%TO.N,/coil start*%
X176530000Y-91948000D03*
D14*
%TO.P,J5,2,Pin_2*%
%TO.N,/coil end*%
X176530000Y-94488000D03*
%TD*%
D13*
%TO.P,J2,1,Pin_1*%
%TO.N,-5V*%
X169621200Y-101092000D03*
D14*
%TO.P,J2,2,Pin_2*%
%TO.N,+5V*%
X167081200Y-101092000D03*
%TD*%
D15*
%TO.P,C7,1*%
%TO.N,+5V*%
X166928800Y-98044000D03*
%TO.P,C7,2*%
%TO.N,GND*%
X164853800Y-98044000D03*
%TD*%
D16*
%TO.P,U1,1,INA-*%
%TO.N,unconnected-(U1-INA--Pad1)*%
X165566352Y-89535000D03*
%TO.P,U1,2,INA+*%
%TO.N,Net-(U1-INA+)*%
X165566352Y-90170000D03*
%TO.P,U1,3,\u002ADISB*%
%TO.N,unconnected-(U1-\u002ADISB-Pad3)*%
X165566352Y-90805000D03*
%TO.P,U1,4,INB-*%
%TO.N,unconnected-(U1-INB--Pad4)*%
X165566352Y-91440000D03*
%TO.P,U1,5,INB+*%
%TO.N,Net-(J6-Pin_1)*%
X165566352Y-92075000D03*
%TO.P,U1,6,\u002ADISC*%
%TO.N,unconnected-(U1-\u002ADISC-Pad6)*%
X165566352Y-92710000D03*
%TO.P,U1,7,INC-*%
%TO.N,Net-(J6-Pin_1)*%
X165566352Y-93345000D03*
%TO.P,U1,8,INC+*%
%TO.N,GND*%
X165566352Y-93980000D03*
%TO.P,U1,9,VS-*%
%TO.N,-5V*%
X171009048Y-93980000D03*
%TO.P,U1,10,OUTC*%
%TO.N,/coil end*%
X171009048Y-93345000D03*
%TO.P,U1,11,VS+*%
%TO.N,+5V*%
X171009048Y-92710000D03*
%TO.P,U1,12,OUTB*%
%TO.N,/coil start*%
X171009048Y-92075000D03*
%TO.P,U1,13,VS-*%
%TO.N,-5V*%
X171009048Y-91440000D03*
%TO.P,U1,14,OUTA*%
%TO.N,Net-(J6-Pin_1)*%
X171009048Y-90805000D03*
%TO.P,U1,15,VS+*%
%TO.N,+5V*%
X171009048Y-90170000D03*
%TO.P,U1,16,\u002ADISA*%
%TO.N,unconnected-(U1-\u002ADISA-Pad16)*%
X171009048Y-89535000D03*
%TD*%
D17*
%TO.P,J1,1,In*%
%TO.N,Net-(J1-In)*%
X163169600Y-76301600D03*
D18*
%TO.P,J1,2,Ext*%
%TO.N,GND*%
X159994600Y-73126600D03*
%TO.P,J1,3*%
X166344600Y-73126600D03*
%TO.P,J1,4*%
X159994600Y-79476600D03*
%TO.P,J1,5*%
X166344600Y-79476600D03*
%TD*%
D15*
%TO.P,C4,1*%
%TO.N,GND*%
X172610600Y-95554800D03*
%TO.P,C4,2*%
%TO.N,-5V*%
X170535600Y-95554800D03*
%TD*%
D11*
%TO.P,C9,1*%
%TO.N,GND*%
X169599700Y-87325200D03*
%TO.P,C9,2*%
%TO.N,+5V*%
X171674700Y-87325200D03*
%TD*%
D13*
%TO.P,J6,1,Pin_1*%
%TO.N,Net-(J6-Pin_1)*%
X166471600Y-86715600D03*
D14*
%TO.P,J6,2,Pin_2*%
%TO.N,GND*%
X166471600Y-84175600D03*
%TD*%
D15*
%TO.P,C3,1*%
%TO.N,GND*%
X176602300Y-85140800D03*
%TO.P,C3,2*%
%TO.N,-5V*%
X174527300Y-85140800D03*
%TD*%
%TO.P,C8,1*%
%TO.N,GND*%
X176580800Y-87477600D03*
%TO.P,C8,2*%
%TO.N,-5V*%
X174505800Y-87477600D03*
%TD*%
D19*
%TO.P,R1,1*%
%TO.N,Net-(U1-INA+)*%
X163220400Y-90271600D03*
%TO.P,R1,2*%
%TO.N,GND*%
X161220400Y-90271600D03*
%TD*%
D13*
%TO.P,J4,1,Pin_1*%
%TO.N,/coil start*%
X180289200Y-91948000D03*
D14*
%TO.P,J4,2,Pin_2*%
%TO.N,/coil end*%
X180289200Y-94488000D03*
%TD*%
D10*
%TO.P,H2,1*%
%TO.N,N/C*%
X159969200Y-99263200D03*
%TD*%
%TO.P,H1,1*%
%TO.N,N/C*%
X179679600Y-73609200D03*
%TD*%
D11*
%TO.P,C2,1*%
%TO.N,GND*%
X169599700Y-85191600D03*
%TO.P,C2,2*%
%TO.N,+5V*%
X171674700Y-85191600D03*
%TD*%
D20*
%TO.N,Net-(J1-In)*%
X163195000Y-85090000D02*
X163195000Y-85013800D01*
D21*
X163169600Y-84988400D02*
X163169600Y-76301600D01*
D20*
X163195000Y-85090000D02*
X163169600Y-85064600D01*
X163195000Y-85013800D02*
X163169600Y-84988400D01*
D21*
%TO.N,Net-(U1-INA+)*%
X165735000Y-90170000D02*
X163322000Y-90170000D01*
D20*
X163322000Y-90170000D02*
X163220400Y-90271600D01*
D21*
X163220400Y-90271600D02*
X163220400Y-87190400D01*
D20*
X163220400Y-87190400D02*
X163195000Y-87165000D01*
D22*
%TO.N,GND*%
X165566352Y-93980000D02*
X164185600Y-93980000D01*
D23*
%TO.N,+5V*%
X166979600Y-95476300D02*
X169745900Y-92710000D01*
D21*
X171704000Y-84179500D02*
X171704000Y-78867000D01*
D23*
X169745900Y-92710000D02*
X170840400Y-92710000D01*
D20*
X166878000Y-95808800D02*
X166979600Y-95707200D01*
D21*
X171725500Y-84201000D02*
X171704000Y-84179500D01*
D23*
X172466000Y-90170000D02*
X172847000Y-89789000D01*
X170840400Y-90170000D02*
X172466000Y-90170000D01*
D21*
X167081200Y-101092000D02*
X167081200Y-97942400D01*
D23*
X166979600Y-95707200D02*
X166979600Y-95476300D01*
D21*
X166878000Y-97739200D02*
X166878000Y-95808800D01*
D23*
X172847000Y-88349000D02*
X171747000Y-87249000D01*
D21*
X171725500Y-84201000D02*
X171725500Y-87227500D01*
D23*
X172847000Y-89789000D02*
X172847000Y-88349000D01*
D21*
%TO.N,-5V*%
X174244000Y-84117000D02*
X174328000Y-84201000D01*
X169621200Y-101092000D02*
X169621200Y-98407400D01*
D23*
X170840400Y-91440000D02*
X173228000Y-91440000D01*
D21*
X169621200Y-98407400D02*
X170238600Y-97790000D01*
D24*
X170238600Y-95656400D02*
X170238600Y-94581800D01*
X170238600Y-94581800D02*
X170840400Y-93980000D01*
D23*
X174328000Y-90340000D02*
X174328000Y-87249000D01*
D21*
X174328000Y-84201000D02*
X174328000Y-87249000D01*
D23*
X173228000Y-91440000D02*
X174328000Y-90340000D01*
D24*
X170840400Y-93980000D02*
X171009048Y-93980000D01*
D21*
X174244000Y-78867000D02*
X174244000Y-84117000D01*
X170238600Y-97790000D02*
X170238600Y-95656400D01*
D22*
%TO.N,/coil start*%
X176631600Y-92049600D02*
X170865800Y-92049600D01*
X176530000Y-91948000D02*
X180289200Y-91948000D01*
D25*
%TO.N,/coil end*%
X173253400Y-93345000D02*
X174498000Y-94589600D01*
X174498000Y-94589600D02*
X176631600Y-94589600D01*
D22*
X176530000Y-94488000D02*
X180289200Y-94488000D01*
D25*
X170840400Y-93345000D02*
X173253400Y-93345000D01*
D23*
%TO.N,Net-(J6-Pin_1)*%
X170840400Y-90805000D02*
X168910000Y-90805000D01*
X168910000Y-90805000D02*
X166471600Y-88366600D01*
X168910000Y-90805000D02*
X167640000Y-92075000D01*
X167640000Y-92075000D02*
X167640000Y-92640100D01*
X167640000Y-92640100D02*
X166935100Y-93345000D01*
X166935100Y-93345000D02*
X165735000Y-93345000D01*
X167640000Y-92075000D02*
X165735000Y-92075000D01*
X166471600Y-88366600D02*
X166471600Y-86715600D01*
%TD*%
%TA.AperFunction,Conductor*%
%TO.N,GND*%
G36*
X183076850Y-69717285D02*
G01*
X183122605Y-69770089D01*
X183133811Y-69821789D01*
X183083387Y-102949862D01*
X183063600Y-103016871D01*
X183010727Y-103062546D01*
X182959862Y-103073672D01*
X156690452Y-103174321D01*
X156623338Y-103154894D01*
X156577381Y-103102265D01*
X156565978Y-103049950D01*
X156577471Y-99263203D01*
X156963615Y-99263203D01*
X156983938Y-99612127D01*
X156983939Y-99612138D01*
X157044628Y-99956327D01*
X157044630Y-99956334D01*
X157144874Y-100291172D01*
X157283307Y-100612095D01*
X157283313Y-100612108D01*
X157458070Y-100914797D01*
X157666784Y-101195149D01*
X157666789Y-101195155D01*
X157790663Y-101326453D01*
X157906642Y-101449383D01*
X158033302Y-101555663D01*
X158174386Y-101674047D01*
X158174394Y-101674053D01*
X158466403Y-101866111D01*
X158712831Y-101989872D01*
X158778749Y-102022977D01*
X159107189Y-102142519D01*
X159447286Y-102223123D01*
X159794441Y-102263700D01*
X159794448Y-102263700D01*
X160143952Y-102263700D01*
X160143959Y-102263700D01*
X160491114Y-102223123D01*
X160831211Y-102142519D01*
X161159651Y-102022977D01*
X161471993Y-101866113D01*
X161764011Y-101674049D01*
X162031758Y-101449383D01*
X162271612Y-101195153D01*
X162480330Y-100914796D01*
X162655089Y-100612104D01*
X162793526Y-100291171D01*
X162893769Y-99956336D01*
X162906444Y-99884455D01*
X162954460Y-99612138D01*
X162954459Y-99612138D01*
X162954462Y-99612127D01*
X162974785Y-99263200D01*
X162954462Y-98914273D01*
X162947515Y-98874872D01*
X162893771Y-98570072D01*
X162893769Y-98570065D01*
X162884777Y-98540029D01*
X162811121Y-98294000D01*
X163766301Y-98294000D01*
X163766301Y-98568986D01*
X163776794Y-98671697D01*
X163831941Y-98838119D01*
X163831943Y-98838124D01*
X163923984Y-98987345D01*
X164047954Y-99111315D01*
X164197175Y-99203356D01*
X164197180Y-99203358D01*
X164363602Y-99258505D01*
X164363609Y-99258506D01*
X164466319Y-99268999D01*
X164603799Y-99268999D01*
X164603800Y-99268998D01*
X164603800Y-98294000D01*
X163766301Y-98294000D01*
X162811121Y-98294000D01*
X162793526Y-98235229D01*
X162655089Y-97914296D01*
X162494442Y-97636047D01*
X162480329Y-97611602D01*
X162271615Y-97331250D01*
X162271610Y-97331244D01*
X162112220Y-97162302D01*
X162031758Y-97077017D01*
X161840783Y-96916770D01*
X161764013Y-96852352D01*
X161764005Y-96852346D01*
X161471996Y-96660288D01*
X161159658Y-96503426D01*
X161159652Y-96503423D01*
X160831212Y-96383881D01*
X160831209Y-96383880D01*
X160491115Y-96303277D01*
X160447719Y-96298204D01*
X160143959Y-96262700D01*
X159794441Y-96262700D01*
X159490680Y-96298204D01*
X159447285Y-96303277D01*
X159447283Y-96303277D01*
X159107190Y-96383880D01*
X159107187Y-96383881D01*
X158778747Y-96503423D01*
X158778741Y-96503426D01*
X158466403Y-96660288D01*
X158174394Y-96852346D01*
X158174386Y-96852352D01*
X157906642Y-97077017D01*
X157906640Y-97077019D01*
X157666789Y-97331244D01*
X157666784Y-97331250D01*
X157458070Y-97611602D01*
X157283313Y-97914291D01*
X157283307Y-97914304D01*
X157144874Y-98235227D01*
X157044630Y-98570065D01*
X157044628Y-98570072D01*
X156983939Y-98914261D01*
X156983938Y-98914272D01*
X156963615Y-99263196D01*
X156963615Y-99263203D01*
X156577471Y-99263203D01*
X156587196Y-96058800D01*
X163664701Y-96058800D01*
X163664701Y-96333786D01*
X163675194Y-96436497D01*
X163730341Y-96602919D01*
X163730343Y-96602924D01*
X163822384Y-96752145D01*
X163946352Y-96876113D01*
X163949955Y-96878962D01*
X163990333Y-96935983D01*
X163993473Y-97005783D01*
X163960728Y-97063910D01*
X163923984Y-97100654D01*
X163831943Y-97249875D01*
X163831941Y-97249880D01*
X163776794Y-97416302D01*
X163776793Y-97416309D01*
X163766300Y-97519013D01*
X163766300Y-97794000D01*
X164603800Y-97794000D01*
X164603800Y-97076800D01*
X164594488Y-97067488D01*
X164559161Y-97057115D01*
X164513406Y-97004311D01*
X164502200Y-96952800D01*
X164502200Y-96058800D01*
X163664701Y-96058800D01*
X156587196Y-96058800D01*
X156604002Y-90521600D01*
X160120401Y-90521600D01*
X160120401Y-90771586D01*
X160130894Y-90874297D01*
X160186041Y-91040719D01*
X160186043Y-91040724D01*
X160278084Y-91189945D01*
X160402054Y-91313915D01*
X160551275Y-91405956D01*
X160551280Y-91405958D01*
X160717702Y-91461105D01*
X160717709Y-91461106D01*
X160820419Y-91471599D01*
X160970399Y-91471599D01*
X161470400Y-91471599D01*
X161620372Y-91471599D01*
X161620386Y-91471598D01*
X161723097Y-91461105D01*
X161889519Y-91405958D01*
X161889524Y-91405956D01*
X162038742Y-91313917D01*
X162132364Y-91220295D01*
X162193687Y-91186810D01*
X162263379Y-91191794D01*
X162307727Y-91220295D01*
X162401744Y-91314312D01*
X162551066Y-91406414D01*
X162717603Y-91461599D01*
X162820391Y-91472100D01*
X163620408Y-91472099D01*
X163620416Y-91472098D01*
X163620419Y-91472098D01*
X163676702Y-91466348D01*
X163723197Y-91461599D01*
X163889734Y-91406414D01*
X164039056Y-91314312D01*
X164126724Y-91226643D01*
X164188043Y-91193161D01*
X164257735Y-91198145D01*
X164313669Y-91240016D01*
X164338086Y-91305480D01*
X164338402Y-91314327D01*
X164338402Y-91665269D01*
X164338403Y-91665276D01*
X164344811Y-91724886D01*
X164345779Y-91728982D01*
X164345782Y-91786004D01*
X164344811Y-91790114D01*
X164338403Y-91849717D01*
X164338402Y-91849736D01*
X164338402Y-92300270D01*
X164338403Y-92300276D01*
X164344811Y-92359886D01*
X164345779Y-92363982D01*
X164345782Y-92421004D01*
X164344811Y-92425114D01*
X164338403Y-92484717D01*
X164338402Y-92484736D01*
X164338402Y-92935270D01*
X164338403Y-92935276D01*
X164344811Y-92994886D01*
X164345779Y-92998982D01*
X164345782Y-93056004D01*
X164344811Y-93060114D01*
X164338403Y-93119717D01*
X164338402Y-93119736D01*
X164338402Y-93570270D01*
X164338403Y-93570276D01*
X164344811Y-93629888D01*
X164346039Y-93635084D01*
X164346041Y-93687505D01*
X164346133Y-93687515D01*
X164346041Y-93688363D01*
X164346042Y-93692100D01*
X164345304Y-93695224D01*
X164338902Y-93754757D01*
X164338902Y-93802600D01*
X164361385Y-93802600D01*
X164428424Y-93822285D01*
X164460651Y-93852288D01*
X164469493Y-93864100D01*
X164481356Y-93879946D01*
X164553741Y-93934134D01*
X164595612Y-93990067D01*
X164600596Y-94059759D01*
X164567111Y-94121082D01*
X164505787Y-94154566D01*
X164479430Y-94157400D01*
X164338902Y-94157400D01*
X164338902Y-94205244D01*
X164345303Y-94264772D01*
X164345305Y-94264779D01*
X164395549Y-94399491D01*
X164399794Y-94407265D01*
X164414645Y-94475538D01*
X164390227Y-94541002D01*
X164334293Y-94582872D01*
X164303564Y-94590048D01*
X164262002Y-94594294D01*
X164095580Y-94649441D01*
X164095575Y-94649443D01*
X163946354Y-94741484D01*
X163822384Y-94865454D01*
X163730343Y-95014675D01*
X163730341Y-95014680D01*
X163675194Y-95181102D01*
X163675193Y-95181109D01*
X163664700Y-95283813D01*
X163664700Y-95558800D01*
X164878200Y-95558800D01*
X164945239Y-95578485D01*
X164990994Y-95631289D01*
X165002200Y-95682800D01*
X165002200Y-96776000D01*
X165011511Y-96785311D01*
X165046839Y-96795685D01*
X165092594Y-96848489D01*
X165103800Y-96900000D01*
X165103800Y-99268999D01*
X165241272Y-99268999D01*
X165241286Y-99268998D01*
X165343997Y-99258505D01*
X165510419Y-99203358D01*
X165510424Y-99203356D01*
X165659645Y-99111315D01*
X165783618Y-98987342D01*
X165785465Y-98984348D01*
X165787269Y-98982724D01*
X165788098Y-98981677D01*
X165788276Y-98981818D01*
X165837410Y-98937621D01*
X165906373Y-98926396D01*
X165970456Y-98954236D01*
X165996543Y-98984341D01*
X165998588Y-98987656D01*
X166122644Y-99111712D01*
X166271223Y-99203356D01*
X166271796Y-99203709D01*
X166318521Y-99255657D01*
X166330700Y-99309248D01*
X166330700Y-99904298D01*
X166311015Y-99971337D01*
X166277825Y-100005872D01*
X166209795Y-100053507D01*
X166042705Y-100220597D01*
X165907165Y-100414169D01*
X165907164Y-100414171D01*
X165807298Y-100628335D01*
X165807294Y-100628344D01*
X165746138Y-100856586D01*
X165746136Y-100856596D01*
X165725541Y-101091999D01*
X165725541Y-101092000D01*
X165746136Y-101327403D01*
X165746138Y-101327413D01*
X165807294Y-101555655D01*
X165807296Y-101555659D01*
X165807297Y-101555663D01*
X165891699Y-101736663D01*
X165907165Y-101769830D01*
X165907167Y-101769834D01*
X165974583Y-101866113D01*
X166042705Y-101963401D01*
X166209799Y-102130495D01*
X166306584Y-102198265D01*
X166403365Y-102266032D01*
X166403367Y-102266033D01*
X166403370Y-102266035D01*
X166617537Y-102365903D01*
X166845792Y-102427063D01*
X167022234Y-102442500D01*
X167081199Y-102447659D01*
X167081200Y-102447659D01*
X167081201Y-102447659D01*
X167140166Y-102442500D01*
X167316608Y-102427063D01*
X167544863Y-102365903D01*
X167759030Y-102266035D01*
X167952601Y-102130495D01*
X168074529Y-102008566D01*
X168135848Y-101975084D01*
X168205540Y-101980068D01*
X168261474Y-102021939D01*
X168278389Y-102052917D01*
X168327402Y-102184328D01*
X168327406Y-102184335D01*
X168413652Y-102299544D01*
X168413655Y-102299547D01*
X168528864Y-102385793D01*
X168528871Y-102385797D01*
X168663717Y-102436091D01*
X168663716Y-102436091D01*
X168670644Y-102436835D01*
X168723327Y-102442500D01*
X170519072Y-102442499D01*
X170578683Y-102436091D01*
X170713531Y-102385796D01*
X170828746Y-102299546D01*
X170914996Y-102184331D01*
X170965291Y-102049483D01*
X170971700Y-101989873D01*
X170971699Y-100194128D01*
X170965291Y-100134517D01*
X170964010Y-100131083D01*
X170914997Y-99999671D01*
X170914993Y-99999664D01*
X170828747Y-99884455D01*
X170828744Y-99884452D01*
X170713535Y-99798206D01*
X170713528Y-99798202D01*
X170578682Y-99747908D01*
X170578683Y-99747908D01*
X170519083Y-99741501D01*
X170519081Y-99741500D01*
X170519073Y-99741500D01*
X170519065Y-99741500D01*
X170495700Y-99741500D01*
X170428661Y-99721815D01*
X170382906Y-99669011D01*
X170371700Y-99617500D01*
X170371700Y-99568003D01*
X176013615Y-99568003D01*
X176033938Y-99916927D01*
X176033939Y-99916938D01*
X176094628Y-100261127D01*
X176094630Y-100261134D01*
X176194874Y-100595972D01*
X176333307Y-100916895D01*
X176333313Y-100916908D01*
X176508070Y-101219597D01*
X176716784Y-101499949D01*
X176716789Y-101499955D01*
X176840663Y-101631253D01*
X176956642Y-101754183D01*
X177133103Y-101902251D01*
X177224386Y-101978847D01*
X177224394Y-101978853D01*
X177516403Y-102170911D01*
X177516407Y-102170913D01*
X177828749Y-102327777D01*
X178157189Y-102447319D01*
X178497286Y-102527923D01*
X178844441Y-102568500D01*
X178844448Y-102568500D01*
X179193952Y-102568500D01*
X179193959Y-102568500D01*
X179541114Y-102527923D01*
X179881211Y-102447319D01*
X180209651Y-102327777D01*
X180521993Y-102170913D01*
X180814011Y-101978849D01*
X181081758Y-101754183D01*
X181321612Y-101499953D01*
X181530330Y-101219596D01*
X181705089Y-100916904D01*
X181843526Y-100595971D01*
X181943769Y-100261136D01*
X181955585Y-100194128D01*
X182004460Y-99916938D01*
X182004459Y-99916938D01*
X182004462Y-99916927D01*
X182024785Y-99568000D01*
X182004462Y-99219073D01*
X182004460Y-99219061D01*
X181943771Y-98874872D01*
X181943769Y-98874865D01*
X181932833Y-98838336D01*
X181843526Y-98540029D01*
X181705089Y-98219096D01*
X181530330Y-97916404D01*
X181439204Y-97794000D01*
X181321615Y-97636050D01*
X181321610Y-97636044D01*
X181205633Y-97513117D01*
X181081758Y-97381817D01*
X180924263Y-97249663D01*
X180814013Y-97157152D01*
X180814005Y-97157146D01*
X180521996Y-96965088D01*
X180209658Y-96808226D01*
X180209652Y-96808223D01*
X179881212Y-96688681D01*
X179881209Y-96688680D01*
X179541115Y-96608077D01*
X179496985Y-96602919D01*
X179193959Y-96567500D01*
X178844441Y-96567500D01*
X178541415Y-96602919D01*
X178497285Y-96608077D01*
X178497283Y-96608077D01*
X178157190Y-96688680D01*
X178157187Y-96688681D01*
X177828747Y-96808223D01*
X177828741Y-96808226D01*
X177516403Y-96965088D01*
X177224394Y-97157146D01*
X177224386Y-97157152D01*
X176956642Y-97381817D01*
X176956640Y-97381819D01*
X176716789Y-97636044D01*
X176716784Y-97636050D01*
X176508070Y-97916402D01*
X176333313Y-98219091D01*
X176333307Y-98219104D01*
X176194874Y-98540027D01*
X176094630Y-98874865D01*
X176094628Y-98874872D01*
X176033939Y-99219061D01*
X176033938Y-99219072D01*
X176013615Y-99567996D01*
X176013615Y-99568003D01*
X170371700Y-99568003D01*
X170371700Y-99139499D01*
X170391385Y-99072460D01*
X170444189Y-99026705D01*
X170495700Y-99015499D01*
X170901602Y-99015499D01*
X170901608Y-99015499D01*
X171004397Y-99004999D01*
X171170934Y-98949814D01*
X171320256Y-98857712D01*
X171444312Y-98733656D01*
X171446352Y-98730347D01*
X171448345Y-98728555D01*
X171448793Y-98727989D01*
X171448889Y-98728065D01*
X171498294Y-98683623D01*
X171567256Y-98672395D01*
X171631340Y-98700234D01*
X171657429Y-98730339D01*
X171659281Y-98733341D01*
X171659283Y-98733344D01*
X171783254Y-98857315D01*
X171932475Y-98949356D01*
X171932480Y-98949358D01*
X172098902Y-99004505D01*
X172098909Y-99004506D01*
X172201619Y-99014999D01*
X172339099Y-99014999D01*
X172339100Y-99014998D01*
X172339100Y-98040000D01*
X172839100Y-98040000D01*
X172839100Y-99014999D01*
X172976572Y-99014999D01*
X172976586Y-99014998D01*
X173079297Y-99004505D01*
X173245719Y-98949358D01*
X173245724Y-98949356D01*
X173394945Y-98857315D01*
X173518915Y-98733345D01*
X173610956Y-98584124D01*
X173610958Y-98584119D01*
X173666105Y-98417697D01*
X173666106Y-98417690D01*
X173676599Y-98314986D01*
X173676600Y-98314973D01*
X173676600Y-98040000D01*
X172839100Y-98040000D01*
X172339100Y-98040000D01*
X172339100Y-97540000D01*
X172839100Y-97540000D01*
X173676599Y-97540000D01*
X173676599Y-97265028D01*
X173676598Y-97265013D01*
X173666105Y-97162302D01*
X173610958Y-96995880D01*
X173610956Y-96995875D01*
X173518915Y-96846654D01*
X173443092Y-96770831D01*
X173409607Y-96709508D01*
X173414591Y-96639816D01*
X173443092Y-96595469D01*
X173540415Y-96498145D01*
X173632456Y-96348924D01*
X173632458Y-96348919D01*
X173687605Y-96182497D01*
X173687606Y-96182490D01*
X173698099Y-96079786D01*
X173698100Y-96079773D01*
X173698100Y-95804800D01*
X172860600Y-95804800D01*
X172860600Y-96749938D01*
X172840915Y-96816977D01*
X172839100Y-96819229D01*
X172839100Y-97540000D01*
X172339100Y-97540000D01*
X172339100Y-96594862D01*
X172358785Y-96527823D01*
X172360600Y-96525570D01*
X172360600Y-94329800D01*
X172360433Y-94329634D01*
X172293959Y-94310115D01*
X172248204Y-94257311D01*
X172236998Y-94205800D01*
X172236998Y-94194500D01*
X172256683Y-94127461D01*
X172309487Y-94081706D01*
X172360998Y-94070500D01*
X172901526Y-94070500D01*
X172968565Y-94090185D01*
X172989207Y-94106819D01*
X173000507Y-94118119D01*
X173033992Y-94179442D01*
X173029008Y-94249134D01*
X172987136Y-94305067D01*
X172921672Y-94329484D01*
X172912826Y-94329800D01*
X172860600Y-94329800D01*
X172860600Y-95304800D01*
X173698099Y-95304800D01*
X173698099Y-95115073D01*
X173717784Y-95048034D01*
X173770588Y-95002279D01*
X173839746Y-94992335D01*
X173903302Y-95021360D01*
X173909766Y-95027378D01*
X174035520Y-95153132D01*
X174077391Y-95181109D01*
X174137607Y-95221344D01*
X174137608Y-95221345D01*
X174154338Y-95232524D01*
X174154346Y-95232528D01*
X174154347Y-95232529D01*
X174286380Y-95287219D01*
X174286384Y-95287219D01*
X174286385Y-95287220D01*
X174426542Y-95315100D01*
X174426545Y-95315100D01*
X175396511Y-95315100D01*
X175463550Y-95334785D01*
X175487433Y-95355816D01*
X175487677Y-95355573D01*
X175491505Y-95359401D01*
X175658599Y-95526495D01*
X175755384Y-95594265D01*
X175852165Y-95662032D01*
X175852167Y-95662033D01*
X175852170Y-95662035D01*
X176066337Y-95761903D01*
X176294592Y-95823063D01*
X176482918Y-95839539D01*
X176529999Y-95843659D01*
X176530000Y-95843659D01*
X176530001Y-95843659D01*
X176569234Y-95840226D01*
X176765408Y-95823063D01*
X176993663Y-95761903D01*
X177207830Y-95662035D01*
X177401401Y-95526495D01*
X177568495Y-95359401D01*
X177651136Y-95241376D01*
X177705713Y-95197752D01*
X177752711Y-95188500D01*
X179066489Y-95188500D01*
X179133528Y-95208185D01*
X179168064Y-95241377D01*
X179250705Y-95359402D01*
X179354945Y-95463641D01*
X179417799Y-95526495D01*
X179514584Y-95594265D01*
X179611365Y-95662032D01*
X179611367Y-95662033D01*
X179611370Y-95662035D01*
X179825537Y-95761903D01*
X180053792Y-95823063D01*
X180242118Y-95839539D01*
X180289199Y-95843659D01*
X180289200Y-95843659D01*
X180289201Y-95843659D01*
X180328434Y-95840226D01*
X180524608Y-95823063D01*
X180752863Y-95761903D01*
X180967030Y-95662035D01*
X181160601Y-95526495D01*
X181327695Y-95359401D01*
X181463235Y-95165830D01*
X181563103Y-94951663D01*
X181624263Y-94723408D01*
X181644859Y-94488000D01*
X181624263Y-94252592D01*
X181563103Y-94024337D01*
X181463235Y-93810171D01*
X181440882Y-93778248D01*
X181327696Y-93616600D01*
X181281366Y-93570270D01*
X181205767Y-93494671D01*
X181172284Y-93433351D01*
X181177268Y-93363659D01*
X181219139Y-93307725D01*
X181250115Y-93290810D01*
X181381531Y-93241796D01*
X181496746Y-93155546D01*
X181582996Y-93040331D01*
X181633291Y-92905483D01*
X181639700Y-92845873D01*
X181639699Y-91050128D01*
X181633291Y-90990517D01*
X181607176Y-90920500D01*
X181582997Y-90855671D01*
X181582993Y-90855664D01*
X181496747Y-90740455D01*
X181496744Y-90740452D01*
X181381535Y-90654206D01*
X181381528Y-90654202D01*
X181246682Y-90603908D01*
X181246683Y-90603908D01*
X181187083Y-90597501D01*
X181187081Y-90597500D01*
X181187073Y-90597500D01*
X181187064Y-90597500D01*
X179391329Y-90597500D01*
X179391323Y-90597501D01*
X179331716Y-90603908D01*
X179196871Y-90654202D01*
X179196864Y-90654206D01*
X179081655Y-90740452D01*
X179081652Y-90740455D01*
X178995406Y-90855664D01*
X178995402Y-90855671D01*
X178945108Y-90990517D01*
X178939711Y-91040724D01*
X178938701Y-91050123D01*
X178938700Y-91050135D01*
X178938700Y-91123500D01*
X178919015Y-91190539D01*
X178866211Y-91236294D01*
X178814700Y-91247500D01*
X178004499Y-91247500D01*
X177937460Y-91227815D01*
X177891705Y-91175011D01*
X177880499Y-91123500D01*
X177880499Y-91050129D01*
X177880498Y-91050123D01*
X177880497Y-91050116D01*
X177874091Y-90990517D01*
X177847976Y-90920500D01*
X177823797Y-90855671D01*
X177823793Y-90855664D01*
X177737547Y-90740455D01*
X177737544Y-90740452D01*
X177622335Y-90654206D01*
X177622328Y-90654202D01*
X177487482Y-90603908D01*
X177487483Y-90603908D01*
X177427883Y-90597501D01*
X177427881Y-90597500D01*
X177427873Y-90597500D01*
X177427864Y-90597500D01*
X175632129Y-90597500D01*
X175632123Y-90597501D01*
X175572516Y-90603908D01*
X175437671Y-90654202D01*
X175437664Y-90654206D01*
X175322455Y-90740452D01*
X175322452Y-90740455D01*
X175236206Y-90855664D01*
X175236202Y-90855671D01*
X175185908Y-90990517D01*
X175180511Y-91040724D01*
X175179501Y-91050123D01*
X175179500Y-91050135D01*
X175179500Y-91225100D01*
X175159815Y-91292139D01*
X175107011Y-91337894D01*
X175055500Y-91349100D01*
X174577523Y-91349100D01*
X174510484Y-91329415D01*
X174464729Y-91276611D01*
X174454785Y-91207453D01*
X174483810Y-91143897D01*
X174489842Y-91137419D01*
X174636745Y-90990516D01*
X174854870Y-90772391D01*
X174864849Y-90757457D01*
X174929102Y-90661296D01*
X174932040Y-90654204D01*
X174953501Y-90602392D01*
X174953501Y-90602391D01*
X174980234Y-90537853D01*
X175006300Y-90406807D01*
X175006300Y-90273193D01*
X175006300Y-88778758D01*
X175025985Y-88711719D01*
X175078789Y-88665964D01*
X175091284Y-88661056D01*
X175162634Y-88637414D01*
X175311956Y-88545312D01*
X175436012Y-88421256D01*
X175438052Y-88417947D01*
X175440045Y-88416155D01*
X175440493Y-88415589D01*
X175440589Y-88415665D01*
X175489994Y-88371223D01*
X175558956Y-88359995D01*
X175623040Y-88387834D01*
X175649129Y-88417939D01*
X175650981Y-88420941D01*
X175650983Y-88420944D01*
X175774954Y-88544915D01*
X175924175Y-88636956D01*
X175924180Y-88636958D01*
X176090602Y-88692105D01*
X176090609Y-88692106D01*
X176193319Y-88702599D01*
X176330799Y-88702599D01*
X176330800Y-88702598D01*
X176330800Y-87727600D01*
X176830800Y-87727600D01*
X176830800Y-88702599D01*
X176968272Y-88702599D01*
X176968286Y-88702598D01*
X177070997Y-88692105D01*
X177237419Y-88636958D01*
X177237424Y-88636956D01*
X177386645Y-88544915D01*
X177510615Y-88420945D01*
X177602656Y-88271724D01*
X177602658Y-88271719D01*
X177657805Y-88105297D01*
X177657806Y-88105290D01*
X177668299Y-88002586D01*
X177668300Y-88002573D01*
X177668300Y-87727600D01*
X176830800Y-87727600D01*
X176330800Y-87727600D01*
X176330800Y-87227600D01*
X176830800Y-87227600D01*
X177668299Y-87227600D01*
X177668299Y-86952628D01*
X177668298Y-86952613D01*
X177657805Y-86849902D01*
X177602658Y-86683480D01*
X177602656Y-86683475D01*
X177510615Y-86534254D01*
X177381537Y-86405176D01*
X177383620Y-86403092D01*
X177350967Y-86356980D01*
X177347826Y-86287181D01*
X177382919Y-86226764D01*
X177403157Y-86211193D01*
X177408143Y-86208117D01*
X177532115Y-86084145D01*
X177624156Y-85934924D01*
X177624158Y-85934919D01*
X177679305Y-85768497D01*
X177679306Y-85768490D01*
X177689799Y-85665786D01*
X177689800Y-85665773D01*
X177689800Y-85390800D01*
X176852300Y-85390800D01*
X176852300Y-86335938D01*
X176832615Y-86402977D01*
X176830800Y-86405229D01*
X176830800Y-87227600D01*
X176330800Y-87227600D01*
X176330800Y-86282462D01*
X176350485Y-86215423D01*
X176352300Y-86213170D01*
X176352300Y-83915800D01*
X176852300Y-83915800D01*
X176852300Y-84890800D01*
X177689799Y-84890800D01*
X177689799Y-84615828D01*
X177689798Y-84615813D01*
X177679305Y-84513102D01*
X177624158Y-84346680D01*
X177624156Y-84346675D01*
X177532115Y-84197454D01*
X177408145Y-84073484D01*
X177258924Y-83981443D01*
X177258919Y-83981441D01*
X177092497Y-83926294D01*
X177092490Y-83926293D01*
X176989786Y-83915800D01*
X176852300Y-83915800D01*
X176352300Y-83915800D01*
X176214827Y-83915800D01*
X176214812Y-83915801D01*
X176112102Y-83926294D01*
X175945680Y-83981441D01*
X175945675Y-83981443D01*
X175796454Y-84073484D01*
X175672483Y-84197455D01*
X175672479Y-84197460D01*
X175670626Y-84200465D01*
X175668818Y-84202090D01*
X175668002Y-84203123D01*
X175667825Y-84202983D01*
X175618674Y-84247185D01*
X175549711Y-84258401D01*
X175485631Y-84230552D01*
X175459553Y-84200453D01*
X175459537Y-84200428D01*
X175457512Y-84197144D01*
X175333456Y-84073088D01*
X175218656Y-84002279D01*
X175184136Y-83980987D01*
X175184135Y-83980986D01*
X175184134Y-83980986D01*
X175130497Y-83963212D01*
X175081582Y-83947003D01*
X175024137Y-83907229D01*
X175006024Y-83876745D01*
X175003937Y-83871706D01*
X174994500Y-83824258D01*
X174994500Y-80014071D01*
X175014185Y-79947032D01*
X175047377Y-79912496D01*
X175166201Y-79829295D01*
X175288517Y-79706978D01*
X175349836Y-79673496D01*
X175419528Y-79678480D01*
X175475462Y-79720351D01*
X175492377Y-79751328D01*
X175541446Y-79882888D01*
X175541449Y-79882893D01*
X175627609Y-79997987D01*
X175627612Y-79997990D01*
X175742706Y-80084150D01*
X175742713Y-80084154D01*
X175877420Y-80134396D01*
X175877427Y-80134398D01*
X175936955Y-80140799D01*
X175936972Y-80140800D01*
X176584800Y-80140800D01*
X176584800Y-79223812D01*
X176641807Y-79256725D01*
X176768974Y-79290800D01*
X176900626Y-79290800D01*
X177027793Y-79256725D01*
X177084800Y-79223812D01*
X177084800Y-80140800D01*
X177732628Y-80140800D01*
X177732644Y-80140799D01*
X177792172Y-80134398D01*
X177792179Y-80134396D01*
X177926886Y-80084154D01*
X177926893Y-80084150D01*
X178041987Y-79997990D01*
X178041990Y-79997987D01*
X178128150Y-79882893D01*
X178128154Y-79882886D01*
X178178396Y-79748179D01*
X178178398Y-79748172D01*
X178184799Y-79688644D01*
X178184800Y-79688627D01*
X178184800Y-79040800D01*
X177267812Y-79040800D01*
X177300725Y-78983793D01*
X177334800Y-78856626D01*
X177334800Y-78724974D01*
X177300725Y-78597807D01*
X177267812Y-78540800D01*
X178184800Y-78540800D01*
X178184800Y-77892972D01*
X178184799Y-77892955D01*
X178178398Y-77833427D01*
X178178396Y-77833420D01*
X178128154Y-77698713D01*
X178128150Y-77698706D01*
X178041990Y-77583612D01*
X178041987Y-77583609D01*
X177926893Y-77497449D01*
X177926886Y-77497445D01*
X177792179Y-77447203D01*
X177792172Y-77447201D01*
X177732644Y-77440800D01*
X177084800Y-77440800D01*
X177084800Y-78357788D01*
X177027793Y-78324875D01*
X176900626Y-78290800D01*
X176768974Y-78290800D01*
X176641807Y-78324875D01*
X176584800Y-78357788D01*
X176584800Y-77440800D01*
X175936955Y-77440800D01*
X175877427Y-77447201D01*
X175877420Y-77447203D01*
X175742713Y-77497445D01*
X175742706Y-77497449D01*
X175627612Y-77583609D01*
X175627609Y-77583612D01*
X175541449Y-77698706D01*
X175541445Y-77698713D01*
X175492378Y-77830270D01*
X175450507Y-77886204D01*
X175385042Y-77910621D01*
X175316769Y-77895769D01*
X175288515Y-77874619D01*
X175244166Y-77830270D01*
X175166201Y-77752305D01*
X175166197Y-77752302D01*
X175166196Y-77752301D01*
X174972634Y-77616767D01*
X174972630Y-77616765D01*
X174901527Y-77583609D01*
X174758463Y-77516897D01*
X174758459Y-77516896D01*
X174758455Y-77516894D01*
X174530213Y-77455738D01*
X174530203Y-77455736D01*
X174294801Y-77435141D01*
X174294799Y-77435141D01*
X174059396Y-77455736D01*
X174059386Y-77455738D01*
X173831144Y-77516894D01*
X173831135Y-77516898D01*
X173616971Y-77616764D01*
X173616969Y-77616765D01*
X173423397Y-77752305D01*
X173256305Y-77919397D01*
X173126375Y-78104958D01*
X173071798Y-78148583D01*
X173002300Y-78155777D01*
X172939945Y-78124254D01*
X172923225Y-78104958D01*
X172793294Y-77919397D01*
X172626202Y-77752306D01*
X172626195Y-77752301D01*
X172432634Y-77616767D01*
X172432630Y-77616765D01*
X172361527Y-77583609D01*
X172218463Y-77516897D01*
X172218459Y-77516896D01*
X172218455Y-77516894D01*
X171990213Y-77455738D01*
X171990203Y-77455736D01*
X171754801Y-77435141D01*
X171754799Y-77435141D01*
X171519396Y-77455736D01*
X171519386Y-77455738D01*
X171291144Y-77516894D01*
X171291135Y-77516898D01*
X171076971Y-77616764D01*
X171076969Y-77616765D01*
X170883397Y-77752305D01*
X170716305Y-77919397D01*
X170580765Y-78112969D01*
X170580764Y-78112971D01*
X170480898Y-78327135D01*
X170480894Y-78327144D01*
X170419738Y-78555386D01*
X170419736Y-78555396D01*
X170399141Y-78790799D01*
X170399141Y-78790800D01*
X170419736Y-79026203D01*
X170419738Y-79026213D01*
X170480894Y-79254455D01*
X170480896Y-79254459D01*
X170480897Y-79254463D01*
X170550068Y-79402800D01*
X170580765Y-79468630D01*
X170580767Y-79468634D01*
X170638021Y-79550400D01*
X170716301Y-79662196D01*
X170716306Y-79662202D01*
X170883394Y-79829291D01*
X170883397Y-79829293D01*
X170883399Y-79829295D01*
X170900622Y-79841355D01*
X170944247Y-79895929D01*
X170953500Y-79942930D01*
X170953500Y-84002279D01*
X170933815Y-84069318D01*
X170894599Y-84107816D01*
X170868546Y-84123885D01*
X170744488Y-84247943D01*
X170744483Y-84247949D01*
X170742441Y-84251261D01*
X170740447Y-84253053D01*
X170740007Y-84253611D01*
X170739911Y-84253535D01*
X170690491Y-84297983D01*
X170621528Y-84309202D01*
X170557447Y-84281355D01*
X170531368Y-84251256D01*
X170529519Y-84248259D01*
X170529516Y-84248255D01*
X170405545Y-84124284D01*
X170256324Y-84032243D01*
X170256319Y-84032241D01*
X170089897Y-83977094D01*
X170089890Y-83977093D01*
X169987186Y-83966600D01*
X169849700Y-83966600D01*
X169849700Y-88550199D01*
X169987172Y-88550199D01*
X169987186Y-88550198D01*
X170089897Y-88539705D01*
X170256319Y-88484558D01*
X170256324Y-88484556D01*
X170405545Y-88392515D01*
X170529518Y-88268542D01*
X170531365Y-88265548D01*
X170533169Y-88263924D01*
X170533998Y-88262877D01*
X170534176Y-88263018D01*
X170583310Y-88218821D01*
X170652273Y-88207596D01*
X170716356Y-88235436D01*
X170742443Y-88265541D01*
X170744488Y-88268856D01*
X170868544Y-88392912D01*
X171017866Y-88485014D01*
X171184403Y-88540199D01*
X171287191Y-88550700D01*
X172038076Y-88550699D01*
X172105115Y-88570383D01*
X172125757Y-88587018D01*
X172132381Y-88593642D01*
X172165866Y-88654965D01*
X172168700Y-88681323D01*
X172168700Y-88808490D01*
X172149015Y-88875529D01*
X172096211Y-88921284D01*
X172027053Y-88931228D01*
X171985274Y-88917322D01*
X171978833Y-88913805D01*
X171843980Y-88863508D01*
X171843981Y-88863508D01*
X171784381Y-88857101D01*
X171784379Y-88857100D01*
X171784371Y-88857100D01*
X171784362Y-88857100D01*
X170233727Y-88857100D01*
X170233721Y-88857101D01*
X170174114Y-88863508D01*
X170039269Y-88913802D01*
X170039262Y-88913806D01*
X169924053Y-89000052D01*
X169924050Y-89000055D01*
X169837804Y-89115264D01*
X169837800Y-89115271D01*
X169795277Y-89229284D01*
X169787507Y-89250117D01*
X169781098Y-89309727D01*
X169781098Y-89309734D01*
X169781098Y-89309735D01*
X169781098Y-89760270D01*
X169781099Y-89760276D01*
X169787507Y-89819886D01*
X169788475Y-89823982D01*
X169788478Y-89881004D01*
X169787507Y-89885114D01*
X169781099Y-89944716D01*
X169781098Y-89944735D01*
X169781098Y-90002700D01*
X169761413Y-90069739D01*
X169708609Y-90115494D01*
X169657098Y-90126700D01*
X169242323Y-90126700D01*
X169175284Y-90107015D01*
X169154642Y-90090381D01*
X167336838Y-88272577D01*
X167303353Y-88211254D01*
X167308337Y-88141562D01*
X167350209Y-88085629D01*
X167411267Y-88061606D01*
X167429083Y-88059691D01*
X167563931Y-88009396D01*
X167679146Y-87923146D01*
X167765396Y-87807931D01*
X167815691Y-87673083D01*
X167822100Y-87613473D01*
X167822100Y-87575200D01*
X168512201Y-87575200D01*
X168512201Y-87850186D01*
X168522694Y-87952897D01*
X168577841Y-88119319D01*
X168577843Y-88119324D01*
X168669884Y-88268545D01*
X168793854Y-88392515D01*
X168943075Y-88484556D01*
X168943080Y-88484558D01*
X169109502Y-88539705D01*
X169109509Y-88539706D01*
X169212219Y-88550199D01*
X169349699Y-88550199D01*
X169349700Y-88550198D01*
X169349700Y-87575200D01*
X168512201Y-87575200D01*
X167822100Y-87575200D01*
X167822100Y-87075200D01*
X168512200Y-87075200D01*
X169349700Y-87075200D01*
X169349700Y-85441600D01*
X168512201Y-85441600D01*
X168512201Y-85716586D01*
X168522694Y-85819297D01*
X168577841Y-85985719D01*
X168577843Y-85985724D01*
X168669884Y-86134945D01*
X168705658Y-86170719D01*
X168739143Y-86232042D01*
X168734159Y-86301734D01*
X168705658Y-86346081D01*
X168669884Y-86381854D01*
X168577843Y-86531075D01*
X168577841Y-86531080D01*
X168522694Y-86697502D01*
X168522693Y-86697509D01*
X168512200Y-86800213D01*
X168512200Y-87075200D01*
X167822100Y-87075200D01*
X167822099Y-85817728D01*
X167815691Y-85758117D01*
X167811483Y-85746836D01*
X167765397Y-85623271D01*
X167765393Y-85623264D01*
X167679147Y-85508055D01*
X167679144Y-85508052D01*
X167563935Y-85421806D01*
X167563928Y-85421802D01*
X167432001Y-85372597D01*
X167376067Y-85330726D01*
X167351650Y-85265262D01*
X167366502Y-85196989D01*
X167387653Y-85168733D01*
X167509708Y-85046678D01*
X167583285Y-84941600D01*
X168512200Y-84941600D01*
X169349700Y-84941600D01*
X169349700Y-83966600D01*
X169212227Y-83966600D01*
X169212212Y-83966601D01*
X169109502Y-83977094D01*
X168943080Y-84032241D01*
X168943075Y-84032243D01*
X168793854Y-84124284D01*
X168669884Y-84248254D01*
X168577843Y-84397475D01*
X168577841Y-84397480D01*
X168522694Y-84563902D01*
X168522693Y-84563909D01*
X168512200Y-84666613D01*
X168512200Y-84941600D01*
X167583285Y-84941600D01*
X167645200Y-84853178D01*
X167745029Y-84639092D01*
X167745032Y-84639086D01*
X167802236Y-84425600D01*
X166904612Y-84425600D01*
X166937525Y-84368593D01*
X166971600Y-84241426D01*
X166971600Y-84109774D01*
X166937525Y-83982607D01*
X166904612Y-83925600D01*
X167802236Y-83925600D01*
X167802235Y-83925599D01*
X167745032Y-83712113D01*
X167745029Y-83712107D01*
X167645200Y-83498022D01*
X167645199Y-83498020D01*
X167509713Y-83304526D01*
X167509708Y-83304520D01*
X167342682Y-83137494D01*
X167149178Y-83001999D01*
X166935092Y-82902170D01*
X166935086Y-82902167D01*
X166721600Y-82844964D01*
X166721600Y-83742588D01*
X166664593Y-83709675D01*
X166537426Y-83675600D01*
X166405774Y-83675600D01*
X166278607Y-83709675D01*
X166221600Y-83742588D01*
X166221600Y-82844964D01*
X166221599Y-82844964D01*
X166008113Y-82902167D01*
X166008107Y-82902170D01*
X165794022Y-83001999D01*
X165794020Y-83002000D01*
X165600526Y-83137486D01*
X165600520Y-83137491D01*
X165433491Y-83304520D01*
X165433486Y-83304526D01*
X165298000Y-83498020D01*
X165297999Y-83498022D01*
X165198170Y-83712107D01*
X165198167Y-83712113D01*
X165140964Y-83925599D01*
X165140964Y-83925600D01*
X166038588Y-83925600D01*
X166005675Y-83982607D01*
X165971600Y-84109774D01*
X165971600Y-84241426D01*
X166005675Y-84368593D01*
X166038588Y-84425600D01*
X165140964Y-84425600D01*
X165198167Y-84639086D01*
X165198170Y-84639092D01*
X165297999Y-84853178D01*
X165433494Y-85046682D01*
X165555546Y-85168734D01*
X165589031Y-85230057D01*
X165584047Y-85299749D01*
X165542175Y-85355682D01*
X165511198Y-85372597D01*
X165379271Y-85421802D01*
X165379264Y-85421806D01*
X165264055Y-85508052D01*
X165264052Y-85508055D01*
X165177806Y-85623264D01*
X165177802Y-85623271D01*
X165127508Y-85758117D01*
X165121101Y-85817716D01*
X165121101Y-85817723D01*
X165121100Y-85817735D01*
X165121100Y-87613470D01*
X165121101Y-87613476D01*
X165127508Y-87673083D01*
X165177802Y-87807928D01*
X165177806Y-87807935D01*
X165264052Y-87923144D01*
X165264055Y-87923147D01*
X165379264Y-88009393D01*
X165379271Y-88009397D01*
X165424218Y-88026161D01*
X165514117Y-88059691D01*
X165573727Y-88066100D01*
X165669300Y-88066099D01*
X165736338Y-88085783D01*
X165782094Y-88138586D01*
X165793300Y-88190099D01*
X165793300Y-88433411D01*
X165819364Y-88564445D01*
X165819366Y-88564453D01*
X165849587Y-88637414D01*
X165849589Y-88637416D01*
X165869567Y-88685649D01*
X165877034Y-88755118D01*
X165845759Y-88817597D01*
X165785669Y-88853249D01*
X165755005Y-88857100D01*
X164791031Y-88857100D01*
X164791025Y-88857101D01*
X164731418Y-88863508D01*
X164596573Y-88913802D01*
X164596566Y-88913806D01*
X164481357Y-89000052D01*
X164481354Y-89000055D01*
X164395108Y-89115264D01*
X164395104Y-89115271D01*
X164344810Y-89250117D01*
X164343028Y-89257662D01*
X164341586Y-89257321D01*
X164318155Y-89313886D01*
X164260761Y-89353732D01*
X164190935Y-89356223D01*
X164133925Y-89323757D01*
X164039055Y-89228887D01*
X164029802Y-89223180D01*
X163983078Y-89171232D01*
X163970900Y-89117642D01*
X163970900Y-88267890D01*
X163990585Y-88200851D01*
X164029801Y-88162353D01*
X164138656Y-88095212D01*
X164262712Y-87971156D01*
X164354814Y-87821834D01*
X164409999Y-87655297D01*
X164420500Y-87552509D01*
X164420499Y-86777492D01*
X164409999Y-86674703D01*
X164354814Y-86508166D01*
X164262712Y-86358844D01*
X164138656Y-86234788D01*
X164135819Y-86233038D01*
X164134283Y-86231330D01*
X164132989Y-86230307D01*
X164133163Y-86230085D01*
X164089096Y-86181094D01*
X164077872Y-86112132D01*
X164105713Y-86048049D01*
X164135817Y-86021962D01*
X164138656Y-86020212D01*
X164262712Y-85896156D01*
X164354814Y-85746834D01*
X164409999Y-85580297D01*
X164420500Y-85477509D01*
X164420499Y-84702492D01*
X164416832Y-84666598D01*
X164409999Y-84599703D01*
X164409998Y-84599700D01*
X164381302Y-84513102D01*
X164354814Y-84433166D01*
X164262712Y-84283844D01*
X164138656Y-84159788D01*
X163989334Y-84067686D01*
X163989332Y-84067685D01*
X163983187Y-84063895D01*
X163984226Y-84062210D01*
X163939256Y-84022615D01*
X163920100Y-83956405D01*
X163920100Y-79476600D01*
X164836651Y-79476600D01*
X164855215Y-79712492D01*
X164910453Y-79942577D01*
X165001007Y-80161195D01*
X165117064Y-80350582D01*
X165667557Y-79800089D01*
X165680579Y-79831527D01*
X165762580Y-79954251D01*
X165866949Y-80058620D01*
X165989673Y-80140621D01*
X166021109Y-80153642D01*
X165470616Y-80704134D01*
X165660004Y-80820192D01*
X165878622Y-80910746D01*
X166108708Y-80965984D01*
X166108707Y-80965984D01*
X166344600Y-80984548D01*
X166580492Y-80965984D01*
X166810577Y-80910746D01*
X167029195Y-80820192D01*
X167218582Y-80704134D01*
X166668090Y-80153642D01*
X166699527Y-80140621D01*
X166822251Y-80058620D01*
X166926620Y-79954251D01*
X167008621Y-79831527D01*
X167021642Y-79800090D01*
X167572134Y-80350582D01*
X167688192Y-80161195D01*
X167778746Y-79942577D01*
X167833984Y-79712492D01*
X167852548Y-79476600D01*
X167833984Y-79240707D01*
X167778746Y-79010622D01*
X167688192Y-78792004D01*
X167572134Y-78602616D01*
X167021642Y-79153109D01*
X167008621Y-79121673D01*
X166926620Y-78998949D01*
X166822251Y-78894580D01*
X166699527Y-78812579D01*
X166668089Y-78799557D01*
X167218582Y-78249064D01*
X167029195Y-78133007D01*
X166810577Y-78042453D01*
X166580491Y-77987215D01*
X166580492Y-77987215D01*
X166344600Y-77968651D01*
X166108707Y-77987215D01*
X165878622Y-78042453D01*
X165660012Y-78133004D01*
X165660007Y-78133007D01*
X165470616Y-78249064D01*
X166021109Y-78799557D01*
X165989673Y-78812579D01*
X165866949Y-78894580D01*
X165762580Y-78998949D01*
X165680579Y-79121673D01*
X165667557Y-79153109D01*
X165117064Y-78602616D01*
X165001007Y-78792007D01*
X165001004Y-78792012D01*
X164910453Y-79010622D01*
X164855215Y-79240707D01*
X164836651Y-79476600D01*
X163920100Y-79476600D01*
X163920100Y-77554952D01*
X163939785Y-77487913D01*
X163967936Y-77457099D01*
X164122539Y-77336768D01*
X164279925Y-77165801D01*
X164407025Y-76971261D01*
X164500371Y-76758454D01*
X164557416Y-76533186D01*
X164576606Y-76301600D01*
X164557416Y-76070014D01*
X164500371Y-75844746D01*
X164407025Y-75631939D01*
X164279925Y-75437399D01*
X164122539Y-75266432D01*
X164122534Y-75266428D01*
X164122532Y-75266426D01*
X163939167Y-75123707D01*
X163939161Y-75123703D01*
X163734788Y-75013101D01*
X163734780Y-75013098D01*
X163515002Y-74937648D01*
X163285790Y-74899400D01*
X163053410Y-74899400D01*
X162824197Y-74937648D01*
X162604419Y-75013098D01*
X162604411Y-75013101D01*
X162400038Y-75123703D01*
X162400032Y-75123707D01*
X162216667Y-75266426D01*
X162216664Y-75266429D01*
X162059276Y-75437397D01*
X162059273Y-75437401D01*
X161932175Y-75631937D01*
X161838829Y-75844745D01*
X161781783Y-76070017D01*
X161762594Y-76301594D01*
X161762594Y-76301605D01*
X161781783Y-76533182D01*
X161838829Y-76758454D01*
X161932175Y-76971262D01*
X162059273Y-77165798D01*
X162059275Y-77165801D01*
X162216661Y-77336768D01*
X162371262Y-77457099D01*
X162412075Y-77513809D01*
X162419100Y-77554952D01*
X162419100Y-83987108D01*
X162399415Y-84054147D01*
X162360197Y-84092646D01*
X162251347Y-84159785D01*
X162251343Y-84159788D01*
X162127289Y-84283842D01*
X162035187Y-84433163D01*
X162035186Y-84433166D01*
X161980001Y-84599703D01*
X161980001Y-84599704D01*
X161980000Y-84599704D01*
X161969500Y-84702483D01*
X161969500Y-85477501D01*
X161969501Y-85477519D01*
X161980000Y-85580296D01*
X161980001Y-85580299D01*
X162035185Y-85746831D01*
X162035187Y-85746836D01*
X162127289Y-85896157D01*
X162251346Y-86020214D01*
X162254182Y-86021963D01*
X162255717Y-86023670D01*
X162257011Y-86024693D01*
X162256836Y-86024914D01*
X162300905Y-86073911D01*
X162312126Y-86142874D01*
X162284282Y-86206956D01*
X162254182Y-86233037D01*
X162251346Y-86234785D01*
X162127289Y-86358842D01*
X162035187Y-86508163D01*
X162035185Y-86508168D01*
X162025005Y-86538890D01*
X161980001Y-86674703D01*
X161980001Y-86674704D01*
X161980000Y-86674704D01*
X161969500Y-86777483D01*
X161969500Y-87552501D01*
X161969501Y-87552519D01*
X161980000Y-87655296D01*
X161980001Y-87655299D01*
X162035185Y-87821831D01*
X162035187Y-87821836D01*
X162052687Y-87850208D01*
X162127288Y-87971156D01*
X162251344Y-88095212D01*
X162400666Y-88187314D01*
X162400667Y-88187314D01*
X162406813Y-88191105D01*
X162405772Y-88192791D01*
X162450737Y-88232373D01*
X162469900Y-88298594D01*
X162469900Y-89117642D01*
X162450215Y-89184681D01*
X162410998Y-89223180D01*
X162401746Y-89228886D01*
X162307727Y-89322905D01*
X162246403Y-89356389D01*
X162176712Y-89351405D01*
X162132365Y-89322904D01*
X162038745Y-89229284D01*
X161889524Y-89137243D01*
X161889519Y-89137241D01*
X161723097Y-89082094D01*
X161723090Y-89082093D01*
X161620386Y-89071600D01*
X161470400Y-89071600D01*
X161470400Y-91471599D01*
X160970399Y-91471599D01*
X160970400Y-91471598D01*
X160970400Y-90521600D01*
X160120401Y-90521600D01*
X156604002Y-90521600D01*
X156605519Y-90021600D01*
X160120400Y-90021600D01*
X160970400Y-90021600D01*
X160970400Y-89071600D01*
X160820427Y-89071600D01*
X160820412Y-89071601D01*
X160717702Y-89082094D01*
X160551280Y-89137241D01*
X160551275Y-89137243D01*
X160402054Y-89229284D01*
X160278084Y-89353254D01*
X160186043Y-89502475D01*
X160186041Y-89502480D01*
X160130894Y-89668902D01*
X160130893Y-89668909D01*
X160120400Y-89771613D01*
X160120400Y-90021600D01*
X156605519Y-90021600D01*
X156637522Y-79476600D01*
X158486651Y-79476600D01*
X158505215Y-79712492D01*
X158560453Y-79942577D01*
X158651007Y-80161195D01*
X158767064Y-80350582D01*
X159317557Y-79800089D01*
X159330579Y-79831527D01*
X159412580Y-79954251D01*
X159516949Y-80058620D01*
X159639673Y-80140621D01*
X159671109Y-80153642D01*
X159120616Y-80704134D01*
X159310004Y-80820192D01*
X159528622Y-80910746D01*
X159758708Y-80965984D01*
X159758707Y-80965984D01*
X159994600Y-80984548D01*
X160230492Y-80965984D01*
X160460577Y-80910746D01*
X160679195Y-80820192D01*
X160868582Y-80704134D01*
X160318090Y-80153642D01*
X160349527Y-80140621D01*
X160472251Y-80058620D01*
X160576620Y-79954251D01*
X160658621Y-79831527D01*
X160671642Y-79800090D01*
X161222134Y-80350582D01*
X161338192Y-80161195D01*
X161428746Y-79942577D01*
X161483984Y-79712492D01*
X161502548Y-79476600D01*
X161483984Y-79240707D01*
X161428746Y-79010622D01*
X161338192Y-78792004D01*
X161222134Y-78602616D01*
X160671642Y-79153109D01*
X160658621Y-79121673D01*
X160576620Y-78998949D01*
X160472251Y-78894580D01*
X160349527Y-78812579D01*
X160318089Y-78799557D01*
X160868582Y-78249064D01*
X160679195Y-78133007D01*
X160460577Y-78042453D01*
X160230491Y-77987215D01*
X160230492Y-77987215D01*
X159994600Y-77968651D01*
X159758707Y-77987215D01*
X159528622Y-78042453D01*
X159310012Y-78133004D01*
X159310007Y-78133007D01*
X159120616Y-78249064D01*
X159671109Y-78799557D01*
X159639673Y-78812579D01*
X159516949Y-78894580D01*
X159412580Y-78998949D01*
X159330579Y-79121673D01*
X159317557Y-79153109D01*
X158767064Y-78602616D01*
X158651007Y-78792007D01*
X158651004Y-78792012D01*
X158560453Y-79010622D01*
X158505215Y-79240707D01*
X158486651Y-79476600D01*
X156637522Y-79476600D01*
X156656794Y-73126600D01*
X158486651Y-73126600D01*
X158505215Y-73362492D01*
X158560453Y-73592577D01*
X158651007Y-73811195D01*
X158767064Y-74000582D01*
X159317557Y-73450089D01*
X159330579Y-73481527D01*
X159412580Y-73604251D01*
X159516949Y-73708620D01*
X159639673Y-73790621D01*
X159671109Y-73803642D01*
X159120616Y-74354134D01*
X159310004Y-74470192D01*
X159528622Y-74560746D01*
X159758708Y-74615984D01*
X159758707Y-74615984D01*
X159994600Y-74634548D01*
X160230492Y-74615984D01*
X160460577Y-74560746D01*
X160679195Y-74470192D01*
X160868582Y-74354134D01*
X160318090Y-73803642D01*
X160349527Y-73790621D01*
X160472251Y-73708620D01*
X160576620Y-73604251D01*
X160658621Y-73481527D01*
X160671642Y-73450090D01*
X161222134Y-74000582D01*
X161338192Y-73811195D01*
X161428746Y-73592577D01*
X161483984Y-73362492D01*
X161502548Y-73126600D01*
X164836651Y-73126600D01*
X164855215Y-73362492D01*
X164910453Y-73592577D01*
X165001007Y-73811195D01*
X165117064Y-74000582D01*
X165667557Y-73450089D01*
X165680579Y-73481527D01*
X165762580Y-73604251D01*
X165866949Y-73708620D01*
X165989673Y-73790621D01*
X166021109Y-73803642D01*
X165470616Y-74354134D01*
X165660004Y-74470192D01*
X165878622Y-74560746D01*
X166108708Y-74615984D01*
X166108707Y-74615984D01*
X166344600Y-74634548D01*
X166580492Y-74615984D01*
X166810577Y-74560746D01*
X167029195Y-74470192D01*
X167218582Y-74354134D01*
X166668090Y-73803642D01*
X166699527Y-73790621D01*
X166822251Y-73708620D01*
X166926620Y-73604251D01*
X167008621Y-73481527D01*
X167021642Y-73450090D01*
X167572134Y-74000582D01*
X167688192Y-73811195D01*
X167771859Y-73609203D01*
X176674015Y-73609203D01*
X176694338Y-73958127D01*
X176694339Y-73958138D01*
X176755028Y-74302327D01*
X176755030Y-74302334D01*
X176855274Y-74637172D01*
X176993707Y-74958095D01*
X176993713Y-74958108D01*
X177168470Y-75260797D01*
X177377184Y-75541149D01*
X177377189Y-75541155D01*
X177462838Y-75631937D01*
X177617042Y-75795383D01*
X177675871Y-75844746D01*
X177884786Y-76020047D01*
X177884794Y-76020053D01*
X178176803Y-76212111D01*
X178176807Y-76212113D01*
X178489149Y-76368977D01*
X178817589Y-76488519D01*
X179157686Y-76569123D01*
X179504841Y-76609700D01*
X179504848Y-76609700D01*
X179854352Y-76609700D01*
X179854359Y-76609700D01*
X180201514Y-76569123D01*
X180541611Y-76488519D01*
X180870051Y-76368977D01*
X181182393Y-76212113D01*
X181474411Y-76020049D01*
X181742158Y-75795383D01*
X181982012Y-75541153D01*
X182190730Y-75260796D01*
X182365489Y-74958104D01*
X182503926Y-74637171D01*
X182604169Y-74302336D01*
X182664862Y-73958127D01*
X182685185Y-73609200D01*
X182664862Y-73260273D01*
X182641292Y-73126599D01*
X182604171Y-72916072D01*
X182604169Y-72916065D01*
X182601766Y-72908037D01*
X182503926Y-72581229D01*
X182365489Y-72260296D01*
X182190730Y-71957604D01*
X182147149Y-71899064D01*
X181982015Y-71677250D01*
X181982010Y-71677244D01*
X181866033Y-71554317D01*
X181742158Y-71423017D01*
X181594088Y-71298772D01*
X181474413Y-71198352D01*
X181474405Y-71198346D01*
X181182396Y-71006288D01*
X180870058Y-70849426D01*
X180870052Y-70849423D01*
X180541612Y-70729881D01*
X180541609Y-70729880D01*
X180201515Y-70649277D01*
X180158119Y-70644204D01*
X179854359Y-70608700D01*
X179504841Y-70608700D01*
X179201080Y-70644204D01*
X179157685Y-70649277D01*
X179157683Y-70649277D01*
X178817590Y-70729880D01*
X178817587Y-70729881D01*
X178489147Y-70849423D01*
X178489141Y-70849426D01*
X178176803Y-71006288D01*
X177884794Y-71198346D01*
X177884786Y-71198352D01*
X177617042Y-71423017D01*
X177617040Y-71423019D01*
X177377189Y-71677244D01*
X177377184Y-71677250D01*
X177168470Y-71957602D01*
X176993713Y-72260291D01*
X176993707Y-72260304D01*
X176855274Y-72581227D01*
X176755030Y-72916065D01*
X176755028Y-72916072D01*
X176694339Y-73260261D01*
X176694338Y-73260272D01*
X176674015Y-73609196D01*
X176674015Y-73609203D01*
X167771859Y-73609203D01*
X167778746Y-73592577D01*
X167833984Y-73362492D01*
X167852548Y-73126600D01*
X167833984Y-72890707D01*
X167778746Y-72660622D01*
X167688192Y-72442004D01*
X167572134Y-72252616D01*
X167021642Y-72803109D01*
X167008621Y-72771673D01*
X166926620Y-72648949D01*
X166822251Y-72544580D01*
X166699527Y-72462579D01*
X166668089Y-72449557D01*
X167218582Y-71899064D01*
X167029195Y-71783007D01*
X166810577Y-71692453D01*
X166580491Y-71637215D01*
X166580492Y-71637215D01*
X166344600Y-71618651D01*
X166108707Y-71637215D01*
X165878622Y-71692453D01*
X165660012Y-71783004D01*
X165660007Y-71783007D01*
X165470616Y-71899064D01*
X166021109Y-72449557D01*
X165989673Y-72462579D01*
X165866949Y-72544580D01*
X165762580Y-72648949D01*
X165680579Y-72771673D01*
X165667557Y-72803109D01*
X165117064Y-72252616D01*
X165001007Y-72442007D01*
X165001004Y-72442012D01*
X164910453Y-72660622D01*
X164855215Y-72890707D01*
X164836651Y-73126600D01*
X161502548Y-73126600D01*
X161483984Y-72890707D01*
X161428746Y-72660622D01*
X161338192Y-72442004D01*
X161222134Y-72252616D01*
X160671642Y-72803109D01*
X160658621Y-72771673D01*
X160576620Y-72648949D01*
X160472251Y-72544580D01*
X160349527Y-72462579D01*
X160318089Y-72449557D01*
X160868582Y-71899064D01*
X160679195Y-71783007D01*
X160460577Y-71692453D01*
X160230491Y-71637215D01*
X160230492Y-71637215D01*
X159994600Y-71618651D01*
X159758707Y-71637215D01*
X159528622Y-71692453D01*
X159310012Y-71783004D01*
X159310007Y-71783007D01*
X159120616Y-71899064D01*
X159671109Y-72449557D01*
X159639673Y-72462579D01*
X159516949Y-72544580D01*
X159412580Y-72648949D01*
X159330579Y-72771673D01*
X159317557Y-72803109D01*
X158767064Y-72252616D01*
X158651007Y-72442007D01*
X158651004Y-72442012D01*
X158560453Y-72660622D01*
X158505215Y-72890707D01*
X158486651Y-73126600D01*
X156656794Y-73126600D01*
X156658208Y-72660622D01*
X156666825Y-69821224D01*
X156686713Y-69754244D01*
X156739655Y-69708650D01*
X156790824Y-69697600D01*
X183009811Y-69697600D01*
X183076850Y-69717285D01*
G37*
%TD.AperFunction*%
%TD*%
M02*
